<?xml version="1.0" encoding="UTF-8"?><svg id="uuid-e5e2461c-9d8e-404b-a094-01b19a55c31f" xmlns="http://www.w3.org/2000/svg" width="700" height="700" viewBox="0 0 700 700"><path d="M181.5,641c-35.56,0-69.56-28.58-95.72-80.47-27.26-54.07-42.28-126.17-42.28-203.03s15.01-148.97,42.28-203.03c26.17-51.89,60.16-80.47,95.72-80.47s69.56,28.58,95.72,80.47c27.26,54.06,42.28,126.17,42.28,203.03s-15.01,148.97-42.28,203.03c-26.17,51.89-60.16,80.47-95.72,80.47Z" fill="#fff"/><path d="M181.5,84c15.15,0,30.21,6.19,44.76,18.39,15.31,12.84,29.85,32.41,42.04,56.58,12.82,25.42,22.92,55.19,30.02,88.46,7.43,34.82,11.19,71.85,11.19,110.07s-3.77,75.26-11.19,110.07c-7.1,33.27-17.2,63.04-30.02,88.46-12.19,24.17-26.73,43.74-42.04,56.58-14.55,12.2-29.6,18.39-44.76,18.39s-30.21-6.19-44.76-18.39c-15.31-12.84-29.85-32.41-42.04-56.58-12.82-25.42-22.92-55.19-30.02-88.46-7.43-34.82-11.19-71.85-11.19-110.07s3.77-75.26,11.19-110.07c7.1-33.27,17.2-63.04,30.02-88.46,12.19-24.17,26.73-43.74,42.04-56.58,14.55-12.2,29.6-18.39,44.76-18.39M181.5,64c-81.74,0-148,131.4-148,293.5s66.26,293.5,148,293.5,148-131.4,148-293.5S263.24,64,181.5,64h0Z"/><path d="M509.5,641c-35.56,0-69.56-28.58-95.72-80.47-27.26-54.07-42.28-126.17-42.28-203.03s15.01-148.97,42.28-203.03c26.17-51.89,60.16-80.47,95.72-80.47s69.56,28.58,95.72,80.47c27.26,54.06,42.28,126.17,42.28,203.03s-15.01,148.97-42.28,203.03c-26.17,51.89-60.16,80.47-95.72,80.47Z" fill="#fff"/><path d="M509.5,84c15.15,0,30.21,6.19,44.76,18.39,15.31,12.84,29.85,32.41,42.04,56.58,12.82,25.42,22.92,55.19,30.02,88.46,7.43,34.82,11.19,71.85,11.19,110.07s-3.77,75.26-11.19,110.07c-7.1,33.27-17.2,63.04-30.02,88.46-12.19,24.17-26.73,43.74-42.04,56.58-14.55,12.2-29.6,18.39-44.76,18.39s-30.21-6.19-44.76-18.39c-15.31-12.84-29.85-32.41-42.04-56.58-12.82-25.42-22.92-55.19-30.02-88.46-7.43-34.82-11.19-71.85-11.19-110.07s3.77-75.26,11.19-110.07c7.1-33.27,17.2-63.04,30.02-88.46,12.19-24.17,26.73-43.74,42.04-56.58,14.55-12.2,29.6-18.39,44.76-18.39M509.5,64c-81.74,0-148,131.4-148,293.5s66.26,293.5,148,293.5,148-131.4,148-293.5-66.26-293.5-148-293.5h0Z"/><path d="M186.83,357.5l31.35-84.92c.21-.57.31-1.16.31-1.73,0-2.03-1.25-3.94-3.27-4.69-2.59-.96-5.47.37-6.42,2.96l-27.3,73.94-27.3-73.94c-.96-2.59-3.83-3.92-6.42-2.96-2.02.75-3.27,2.66-3.27,4.69,0,.58.1,1.16.31,1.73l31.35,84.92-31.35,84.92c-.21.57-.31,1.16-.31,1.73,0,2.03,1.25,3.94,3.27,4.69.57.21,1.16.31,1.73.31,2.03,0,3.95-1.25,4.69-3.27l27.3-73.94,27.3,73.94c.75,2.02,2.66,3.27,4.69,3.27.58,0,1.16-.1,1.73-.31,2.02-.75,3.27-2.66,3.27-4.69,0-.58-.1-1.16-.31-1.73l-31.35-84.92Z"/><path d="M514.83,357.5l31.35-84.92c.21-.57.31-1.16.31-1.73,0-2.03-1.25-3.94-3.27-4.69-2.59-.96-5.47.37-6.42,2.96l-27.3,73.94-27.3-73.94c-.96-2.59-3.83-3.92-6.42-2.96-2.02.75-3.27,2.66-3.27,4.69,0,.58.1,1.16.31,1.73l31.35,84.92-31.35,84.92c-.21.57-.31,1.16-.31,1.73,0,2.03,1.25,3.94,3.27,4.69.57.21,1.16.31,1.73.31,2.03,0,3.95-1.25,4.69-3.27l27.3-73.94,27.3,73.94c.75,2.02,2.66,3.27,4.69,3.27.58,0,1.16-.1,1.73-.31,2.02-.75,3.27-2.66,3.27-4.69,0-.58-.1-1.16-.31-1.73l-31.35-84.92Z"/></svg>