<?xml version="1.0" encoding="UTF-8"?><svg id="uuid-405e1305-3a90-4f89-96ec-524d65403d3c" xmlns="http://www.w3.org/2000/svg" width="700" height="700" viewBox="0 0 700 700"><path d="M350,657c-82,0-159.1-31.93-217.08-89.92-57.98-57.99-89.92-135.08-89.92-217.08s31.93-159.1,89.92-217.08c57.98-57.98,135.08-89.92,217.08-89.92s159.1,31.93,217.08,89.92c57.98,57.99,89.92,135.08,89.92,217.08s-31.93,159.1-89.92,217.08c-57.99,57.98-135.08,89.92-217.08,89.92Z" fill="#fff"/><path d="M350,53c40.1,0,79,7.85,115.6,23.33,35.36,14.96,67.13,36.38,94.41,63.66,27.28,27.28,48.7,59.05,63.66,94.41,15.48,36.6,23.33,75.5,23.33,115.6s-7.85,79-23.33,115.6c-14.96,35.36-36.38,67.13-63.66,94.41-27.28,27.28-59.05,48.7-94.41,63.66-36.6,15.48-75.5,23.33-115.6,23.33s-79-7.85-115.6-23.33c-35.36-14.96-67.13-36.38-94.41-63.66-27.28-27.28-48.7-59.05-63.66-94.41-15.48-36.6-23.33-75.5-23.33-115.6s7.85-79,23.33-115.6c14.96-35.36,36.38-67.13,63.66-94.41,27.28-27.28,59.05-48.7,94.41-63.66,36.6-15.48,75.5-23.33,115.6-23.33M350,33c-175.07,0-317,141.93-317,317s141.93,317,317,317,317-141.93,317-317S525.07,33,350,33h0Z"/><path d="M520.23,253.45c-5.82-8.73-19.42.61-13.34,9.18,0,0,52.39,76.13,52.39,76.13H140.88l52.39-76.13c2.53-3.68,1.6-8.72-2.08-11.26-3.68-2.53-8.72-1.6-11.26,2.08l-64.35,93.52,64.19,93.29c2.53,3.68,7.57,4.61,11.26,2.08,3.68-2.53,4.61-7.57,2.08-11.26l-52.39-76.13c98.04,0,322.69,0,418.41,0l-52.39,76.13c-2.53,3.68-1.6,8.72,2.08,11.26,3.68,2.53,8.72,1.6,11.26-2.08l64.35-93.52-64.19-93.29Z"/><path d="M434.23,506.9l-76.13,52.39V140.88l76.13,52.39c3.68,2.53,8.72,1.6,11.26-2.08,2.53-3.68,1.6-8.72-2.08-11.26l-93.52-64.35-93.28,64.19c-3.68,2.53-4.61,7.57-2.08,11.26,2.53,3.68,7.57,4.61,11.26,2.08l76.13-52.39v418.41l-76.13-52.39c-3.68-2.53-8.72-1.6-11.26,2.08-2.53,3.68-1.6,8.72,2.08,11.26l93.52,64.35,93.28-64.19c8.73-5.82-.61-19.42-9.18-13.34Z"/></svg>