<?xml version="1.0" encoding="UTF-8"?>
<svg id="uuid-d7a654d6-07b7-4e3d-91e0-8efca07e5bf7" xmlns="http://www.w3.org/2000/svg" width="700"
  height="700" viewBox="0 0 700 700">
  <path
    d="M198.5,130c65.48-2.79,127.4,59.07,145.41,92.41,52.96-22.97,78.46,5.43,100.36,19.9,147.1-2.28,131.03,196.36,72.06,271.29,29.68,86.3-121.01,115.63-178,82.97-19.07-10.65-20.46-27.58-22.85-46.44-23.71-13.33-46.4-28.39-69.7-42.43-26.07-13.22-61.57-7.1-92.29-12.69-18.89-3.44-27.24-17.93-25-37,7-52,28-59,110-47,19,2,23.44-10.27,25.21-15.97,8.83-28.44-4.21-67.03-55.21-136.03-46.76-66.12-87-116-10-129ZM332.66,557.89c1.27,67.47,191.73,33,169.65-27.74-48.14,30.81-114.22,47.35-169.65,27.74h0Z" />
  <path
    d="M332.66,557.89c23.91,11.11,48.23,9.52,72.72,6.15,18.48-2.55,36.66-6.4,54.36-12.32,15.13-5.06,29.78-11.16,42.56-21.57,3.7,3.9,4.67,8.53,3.35,13.22-1.08,3.85-2.92,7.68-5.24,10.94-8.49,11.9-19.87,20.21-33.57,25.26-28.88,10.65-58.66,15.86-89.48,14.07-13.15-.76-25.1-5.16-35.21-13.73-6.46-5.47-10.78-12.16-9.49-22.01h0Z"
    fill="#f9efef" />
  <path
    d="M538.93,424.85c6.45-46.65,5.93-98.79-21.6-138.95-13.4-21.44-35.08-32.11-60.68-30.48,7.06,15.44,13.46,29.46,20.34,44.51-24.51-19.03-33.33-52.23-60.72-67.46-99.69-30.42-63.94,26.99-38.17,84.42-47.07-41.22-29.75-80.58-67.24-124.84-60.06-70.89-171.35-67.06-138.77-4.18,31.89,60.09,112.28,133.64,105.26,204.71-1.18,11.95-12.54,26.65-24.54,27.18-43.22,1.92-109.31-26.76-113.31,42.24-1.81,42.77,63.78,13.04,109.35,33.61,37.23,19.66,79.25,53.16,123.03,55.27,82.96,2.82,156.83-37.89,167.05-126.03Z"
    fill="#f9efef" />
</svg>