<?xml version="1.0" encoding="UTF-8"?><svg id="uuid-93d305c5-8316-4d49-b57b-706af7b52285" xmlns="http://www.w3.org/2000/svg" width="130" height="161" viewBox="0 0 130 161"><rect x="10.5" y="15.5" width="81" height="109" fill="#516b35"/><rect x="16.5" y="12.5" width="78" height="106" fill="#fff"/><path d="M93,14v103H18V14h75M96,11H15v109h81V11h0Z"/><rect x="23" y="28" width="81" height="109" fill="#516b35"/><rect x="29" y="25" width="78" height="106" fill="#fff"/><path d="M105.5,26.5v103H30.5V26.5h75M108.5,23.5H27.5v109h81V23.5h0Z"/><rect x="36" y="41" width="81" height="109" fill="#516b35"/><rect x="42" y="38" width="78" height="106" fill="#fff"/><path d="M118.5,39.5v103H43.5V39.5h75M121.5,36.5H40.5v109h81V36.5h0Z"/></svg>