<?xml version="1.0" encoding="UTF-8"?><svg id="uuid-8986a4eb-06a9-4016-be2c-0d6879132c94" xmlns="http://www.w3.org/2000/svg" width="89.62" height="96.49" viewBox="0 0 89.62 96.49"><path d="M81.64,32.05c-.81-.17-1.64-.19-2.46-.07l1.02-5.37c.79-4.09-1.75-8.08-5.69-8.91-3.93-.82-7.76,1.83-8.56,5.92,0,.01,0,.03,0,.04l-3.88,20.27c-.26,1.37-1.54,2.25-2.85,1.98-.96-.2-1.71-.98-1.9-1.98l-5.19-27.19c-.79-4.09-4.62-6.75-8.56-5.92-3.2.67-5.58,3.48-5.81,6.88-3.95-.76-7.73,1.95-8.46,6.06-.17.94-.16,1.91.02,2.85l6.51,34.09c.26,1.37-.59,2.69-1.9,2.97-.63.13-1.29,0-1.82-.38l-9.03-6.29c-3.34-2.32-7.85-1.39-10.08,2.09-2.23,3.47-1.33,8.17,2.01,10.49l24.24,16.88c12.85,8.92,30.21,5.31,38.78-8.07,2.03-3.18,3.45-6.73,4.16-10.48l5.15-26.97c.78-4.09-1.78-8.08-5.71-8.9h0Z" fill="#f8f2ed"/><path d="M79.41,31.31c-.81-.17-1.64-.19-2.46-.07l1.02-5.37c.79-4.09-1.75-8.08-5.69-8.91-3.93-.82-7.76,1.83-8.56,5.92,0,.01,0,.03,0,.04l-3.88,20.27c-.26,1.37-1.54,2.25-2.85,1.98-.96-.2-1.71-.98-1.9-1.98l-5.19-27.19c-.79-4.09-4.62-6.75-8.56-5.92-3.2.67-5.58,3.48-5.81,6.88-3.95-.76-7.73,1.95-8.46,6.06-.17.94-.16,1.91.02,2.85l6.51,34.09c.26,1.37-.59,2.69-1.9,2.97-.63.13-1.29,0-1.82-.38l-9.03-6.29c-3.34-2.32-7.85-1.39-10.08,2.09-2.23,3.47-1.33,8.17,2.01,10.49l24.24,16.88c12.85,8.92,30.21,5.31,38.78-8.07,2.03-3.18,3.45-6.73,4.16-10.48l5.15-26.97c.78-4.09-1.78-8.08-5.71-8.9h0ZM80.37,39.22l-5.15,26.97c-2.49,13.04-14.66,21.51-27.19,18.91-3.22-.67-6.26-2.04-8.93-4.02l-.06-.05-23.56-16.39c-1.12-.77-1.42-2.33-.69-3.49.74-1.16,2.24-1.48,3.36-.72,0,0,.02,0,.02.02l9.03,6.29c1.68,1.21,3.78,1.6,5.76,1.06l8.07-1.67c4.55-.94,8.97,2.14,9.88,6.87.26,1.37,1.54,2.25,2.85,1.98,1.31-.27,2.16-1.6,1.9-2.97-1.43-7.46-8.4-12.31-15.57-10.84l-1.64.33c.11-.85.08-1.71-.09-2.55l-6.51-34.08c-.26-1.37.59-2.69,1.9-2.97,1.31-.27,2.59.61,2.85,1.98l4.72,24.73c.24,1.37,1.5,2.28,2.82,2.03,1.32-.25,2.19-1.56,1.95-2.93,0-.03,0-.05-.02-.08l-5.67-29.68c-.26-1.37.59-2.69,1.9-2.97s2.59.61,2.85,1.98l5.19,27.19c.78,4.1,4.61,6.76,8.54,5.94,2.88-.6,5.13-2.94,5.71-5.94l3.88-20.27c.24-1.37,1.5-2.28,2.82-2.03,1.32.25,2.19,1.56,1.95,2.93,0,.03,0,.05-.02.08l-4.73,24.74c-.26,1.37.59,2.69,1.9,2.97,1.31.27,2.59-.61,2.85-1.98l2.36-12.37c.24-1.37,1.5-2.28,2.82-2.02,1.32.25,2.19,1.57,1.94,2.94,0,.02,0,.05,0,.07h0Z"/></svg>