<svg id="uuid-d80396e2-fa0b-496d-9f29-bbb39f77cfe1" xmlns="http://www.w3.org/2000/svg" width="700"
  height="700" viewBox="0 0 700 700">
  <path
    d="M181.5,84c15.15,0,30.21,6.19,44.76,18.39,15.31,12.84,29.85,32.41,42.04,56.58,12.82,25.42,22.92,55.19,30.02,88.46,7.43,34.82,11.19,71.85,11.19,110.07s-3.77,75.26-11.19,110.07c-7.1,33.27-17.2,63.04-30.02,88.46-12.19,24.17-26.73,43.74-42.04,56.58-14.55,12.2-29.6,18.39-44.76,18.39s-30.21-6.19-44.76-18.39c-15.31-12.84-29.85-32.41-42.04-56.58-12.82-25.42-22.92-55.19-30.02-88.46-7.43-34.82-11.19-71.85-11.19-110.07s3.77-75.26,11.19-110.07c7.1-33.27,17.2-63.04,30.02-88.46,12.19-24.17,26.73-43.74,42.04-56.58,14.55-12.2,29.6-18.39,44.76-18.39M181.5,64c-81.74,0-148,131.4-148,293.5s66.26,293.5,148,293.5,148-131.4,148-293.5S263.24,64,181.5,64h0Z" />
  <path
    d="M509.5,84c15.15,0,30.21,6.19,44.76,18.39,15.31,12.84,29.85,32.41,42.04,56.58,12.82,25.42,22.92,55.19,30.02,88.46,7.43,34.82,11.19,71.85,11.19,110.07s-3.77,75.26-11.19,110.07c-7.1,33.27-17.2,63.04-30.02,88.46-12.19,24.17-26.73,43.74-42.04,56.58-14.55,12.2-29.6,18.39-44.76,18.39s-30.21-6.19-44.76-18.39c-15.31-12.84-29.85-32.41-42.04-56.58-12.82-25.42-22.92-55.19-30.02-88.46-7.43-34.82-11.19-71.85-11.19-110.07s3.77-75.26,11.19-110.07c7.1-33.27,17.2-63.04,30.02-88.46,12.19-24.17,26.73-43.74,42.04-56.58,14.55-12.2,29.6-18.39,44.76-18.39M509.5,64c-81.74,0-148,131.4-148,293.5s66.26,293.5,148,293.5,148-131.4,148-293.5-66.26-293.5-148-293.5h0Z" />
  <ellipse cx="181.5" cy="357.5" rx="52.2" ry="141" />
  <ellipse cx="509.5" cy="357.5" rx="52.2" ry="141" />
</svg>