<?xml version="1.0" standalone="no"?>
<!DOCTYPE svg PUBLIC "-//W3C//DTD SVG 1.1//EN" "http://www.w3.org/Graphics/SVG/1.1/DTD/svg11.dtd" >
<svg xmlns="http://www.w3.org/2000/svg" xmlns:xlink="http://www.w3.org/1999/xlink" version="1.1">
<metadata>
Created by FontForge 20170731 at Fri Apr  9 14:56:14 2021
 By Aleksey,,,
</metadata>
<defs>
<font id="BNReconGroteskRegular" horiz-adv-x="1257" >
  <font-face 
    font-family="BN Recon Grotesk"
    font-weight="400"
    font-stretch="normal"
    units-per-em="2048"
    panose-1="0 0 0 0 0 0 0 0 0 0"
    ascent="1638"
    descent="-410"
    x-height="1036"
    cap-height="1434"
    bbox="-100 -495 2200 1922"
    underline-thickness="102"
    underline-position="-307"
    unicode-range="U+000A-F005"
  />
<missing-glyph horiz-adv-x="1079" 
d="M102 1434h875v-1434h-875v1434zM160 1393l379 -633l381 633h-760zM514 717l-369 614v-1231zM541 674l-379 -631h758zM565 717l371 -621v1239z" />
    <glyph glyph-name=".notdef" horiz-adv-x="1079" 
d="M102 1434h875v-1434h-875v1434zM160 1393l379 -633l381 633h-760zM514 717l-369 614v-1231zM541 674l-379 -631h758zM565 717l371 -621v1239z" />
    <glyph glyph-name=".null" horiz-adv-x="0" 
 />
    <glyph glyph-name=".null" horiz-adv-x="0" 
 />
    <glyph glyph-name="nonmarkingreturn" horiz-adv-x="682" 
 />
    <glyph glyph-name="controlLF" unicode="&#xa;" horiz-adv-x="0" 
 />
    <glyph glyph-name="controlCR" unicode="&#xd;" horiz-adv-x="0" 
 />
    <glyph glyph-name="space" unicode=" " horiz-adv-x="757" 
 />
    <glyph glyph-name="exclam" unicode="!" horiz-adv-x="581" 
d="M471 -1h-360v382h360v-382zM94 1432h393v-250q0 -103 -23.5 -214t-52 -224t-36.5 -199h-169q-8 86 -36.5 199t-52 224t-23.5 214v250z" />
    <glyph glyph-name="numbersign" unicode="#" horiz-adv-x="1536" 
d="M1464 828h-274l-47 -252h248l3 -247h-296l-62 -329h-278l62 329h-256l-61 -329h-278l62 329h-212l-3 247h260l47 252h-222l-3 247h272l59 319h278l-59 -319h255l60 319h277l-59 -319h224zM865 576l47 252h-256l-46 -252h255z" />
    <glyph glyph-name="dollar" unicode="$" horiz-adv-x="1380" 
d="M1301 400q0 -167 -120 -282t-333 -148v-189h-301v187q-118 18 -209.5 65.5t-146.5 115t-85.5 141.5t-39.5 156l343 28q19 -122 97 -191t195 -69q101 0 166 44t65 133q0 108 -137 161l-397 156q-112 44 -178.5 138.5t-66.5 234.5q0 59 21 117t65 113.5t123.5 97
t184.5 57.5v175h301v-180q95 -19 170 -60.5t121.5 -96t73 -113t33.5 -119.5l-347 -28q-15 86 -77.5 134t-131.5 48q-82 0 -132.5 -39t-50.5 -100q0 -87 122 -134l386 -151q286 -112 286 -402zM412 702q1 0 5 -1.5t6 -2.5q-9 3 -11 4zM432 695q1 -1 4 -2t5 -2q-2 1 -5 2t-4 2
zM459 684z" />
    <glyph glyph-name="percent" unicode="%" horiz-adv-x="1914" 
d="M842 1073q0 -183 -109 -296.5t-284 -113.5t-282.5 113t-107.5 297t107.5 297t282.5 113t284 -113.5t109 -296.5zM308 1073q0 -95 37 -154.5t105 -59.5q69 0 106 59t37 155t-37 155.5t-106 59.5q-68 0 -105 -60t-37 -155zM1460 769q175 0 284.5 -113.5t109.5 -296.5
t-109.5 -296.5t-284.5 -113.5t-282 113t-107 297t107 297t282 113zM1461 144q70 0 107 60t37 155t-37 154.5t-107 59.5q-68 0 -104.5 -59.5t-36.5 -154.5t36.5 -155t104.5 -60zM1260 1433h206l-816 -1433h-204z" />
    <glyph glyph-name="ampersand" unicode="&#x26;" horiz-adv-x="1765" 
d="M1692 0q-27 0 -128.5 0.5t-147.5 0.5q-100 0 -155 17.5t-108 72.5l-66 72q-217 -200 -509 -200q-244 0 -383.5 105t-139.5 286q0 53 10 97t39.5 93.5t78 91.5t129.5 86t190 82q-57 73 -86 140.5t-29 150.5q0 160 122 267.5t341 107.5q114 0 202 -29t139 -78.5t76 -108
t25 -123.5q0 -113 -80.5 -206t-208.5 -155l193 -209q19 20 35 42t30.5 51.5t23 48.5t24.5 60.5t24 59.5h372q-32 -65 -83.5 -133t-108.5 -123.5t-97 -90.5t-77 -64q8 -9 30 -31.5t29 -29.5l25 -25t25.5 -23.5t22.5 -18.5t23.5 -17.5t22.5 -12t25 -10t24.5 -5t27.5 -2.5h98
v-237zM941 316l-312 332q-94 -37 -136.5 -98t-42.5 -125q0 -95 65.5 -146.5t176.5 -51.5q157 0 249 89zM880 1277q-65 0 -101.5 -39t-36.5 -106q0 -112 124 -222q73 33 113 93.5t40 121.5q0 67 -38 109.5t-101 42.5z" />
    <glyph glyph-name="quotesingle" unicode="'" horiz-adv-x="528" 
d="M94 1434h361v-263q0 -76 -10.5 -140.5t-38 -125t-69.5 -103t-109.5 -68t-155.5 -25.5v158q80 17 121.5 55.5t41.5 129.5h-141v382z" />
    <glyph glyph-name="quotesingle" unicode="&#x2019;" horiz-adv-x="528" 
d="M94 1434h361v-263q0 -76 -10.5 -140.5t-38 -125t-69.5 -103t-109.5 -68t-155.5 -25.5v158q80 17 121.5 55.5t41.5 129.5h-141v382z" />
    <glyph glyph-name="quotesingle" unicode="&#x2018;" horiz-adv-x="528" 
d="M94 1434h361v-263q0 -76 -10.5 -140.5t-38 -125t-69.5 -103t-109.5 -68t-155.5 -25.5v158q80 17 121.5 55.5t41.5 129.5h-141v382z" />
    <glyph glyph-name="parenleft" unicode="(" horiz-adv-x="770" 
d="M492 1552h336q-83 -110 -112 -154q-235 -362 -235 -776q0 -164 34.5 -314.5t99.5 -275t101.5 -181.5t95.5 -136q11 -16 16 -22h-342q-89 105 -106 127q-296 383 -296 802q0 98 17.5 195.5t41 172.5t64.5 156.5t70.5 130.5t77.5 111.5t66.5 84t55.5 62.5q3 4 5 6t5 5.5
t5 5.5z" />
    <glyph glyph-name="parenright" unicode=")" horiz-adv-x="770" 
d="M277 -307h-336q82 110 109 150q238 363 238 779q0 112 -17 220t-48.5 198t-64 164t-75 141.5t-69 105.5t-57.5 80q-11 15 -16 21h341q5 -6 18 -21q33 -38 54.5 -64t65.5 -86t75 -112t69.5 -131t62 -154t40.5 -170.5t17 -191.5q0 -98 -17.5 -195.5t-41 -172.5t-64.5 -156
t-70.5 -130t-77 -111.5t-66 -84t-55.5 -62.5q-3 -4 -5 -6t-5 -5.5t-5 -5.5z" />
    <glyph glyph-name="asterisk" unicode="*" horiz-adv-x="935" 
d="M878 1041l-295 -35l221 -195l-219 -159l-117 259l-118 -259l-219 159l221 195l-295 35l88 257l247 -148l-60 283h271l-62 -285l249 150z" />
    <glyph glyph-name="plus" unicode="+" horiz-adv-x="1181" 
d="M463 989v411h255v-411h410v-256h-410v-411h-255v411h-410v256h410z" />
    <glyph glyph-name="comma" unicode="," horiz-adv-x="483" 
d="M58 381h366v-235q0 -79 -8 -143t-32 -131.5t-64 -113.5t-109.5 -77t-163.5 -34v158q74 16 110 58t36 136h-135v382z" />
    <glyph glyph-name="hyphen" unicode="-" horiz-adv-x="782" 
d="M51 734v307h678v-307h-678z" />
    <glyph glyph-name="period" unicode="." horiz-adv-x="475" 
d="M418 -1h-361v382h361v-382z" />
    <glyph glyph-name="slash" unicode="/" horiz-adv-x="622" 
d="M-8 -307l384 1859h218l-389 -1859h-213z" />
    <glyph glyph-name="zero" unicode="0" horiz-adv-x="1570" 
d="M785 1470q146 0 272 -48t223.5 -139t153.5 -237t56 -329t-56 -328.5t-153 -237.5t-223.5 -140t-272.5 -48t-272.5 48t-223.5 140t-153 237.5t-56 328.5t56 329t153.5 237t223.5 139t272 48zM785 226q146 0 226.5 125.5t80.5 365.5t-80.5 365.5t-226.5 125.5t-227 -125.5
t-81 -365.5t81 -365.5t227 -125.5z" />
    <glyph glyph-name="one" unicode="1" horiz-adv-x="784" 
d="M43 1015v186q90 4 163.5 27t119.5 58.5t74 72t41 75.5h230v-1433h-373v1014h-255z" />
    <glyph glyph-name="two" unicode="2" horiz-adv-x="1357" 
d="M408 760h-292q-34 100 -34 209q0 223 164 362.5t424 139.5q127 0 230.5 -27t171.5 -72t114 -104t66 -121t20 -127q0 -48 -9 -90.5t-31 -83.5t-48.5 -76.5t-73 -77.5t-92 -78t-118.5 -85.5t-139.5 -92.5t-165.5 -107q-31 -20 -47 -30h716v-298h-1165v158
q105 90 250.5 209.5t238 196.5t131.5 116q82 80 113.5 141t31.5 147q0 111 -67.5 181.5t-187.5 70.5q-114 0 -182.5 -77.5t-68.5 -191.5q0 -99 50 -192z" />
    <glyph glyph-name="three" unicode="3" horiz-adv-x="1452" 
d="M489 856h196q105 0 164 47.5t59 140.5q0 85 -66 138t-166 53q-103 0 -173 -62t-69 -189h-301q0 76 17 143.5t59 131.5t106 110t165.5 74t229.5 28q90 0 173 -14t158 -45.5t130.5 -77t88 -113.5t32.5 -151q0 -122 -97 -205t-240 -95q79 -5 152 -30.5t134 -69t98 -112.5
t37 -154q0 -95 -40.5 -171.5t-106.5 -125.5t-156 -82t-183 -47t-193 -14q-131 0 -241.5 30t-197.5 91.5t-136.5 165t-49.5 239.5h311q0 -126 85 -205.5t226 -79.5q271 0 271 200q0 59 -21.5 102.5t-61 68.5t-89 37t-110.5 12h-194v231z" />
    <glyph glyph-name="four" unicode="4" horiz-adv-x="1460" 
d="M55 601l639 833h437v-875h285v-238h-285v-320h-363v320h-713v280zM768 559v565l-429 -565h429z" />
    <glyph glyph-name="five" unicode="5" horiz-adv-x="1402" 
d="M780 942q125 0 229 -38.5t173.5 -104.5t108 -154t38.5 -188q0 -214 -168 -354t-468 -140q-141 0 -260 40.5t-196 107t-121 151t-46 174.5h349q0 -113 71.5 -187t192.5 -74q67 0 117.5 24t78.5 65t41.5 87.5t13.5 98.5q0 74 -23 129.5t-62 87t-84 47t-95 15.5
q-87 0 -154 -40t-102 -117h-264l81 861h942q0 -1 -0.5 -3t-0.5 -3v-315h-725l-32 -353q57 94 155.5 138.5t209.5 44.5z" />
    <glyph glyph-name="six" unicode="6" horiz-adv-x="1472" 
d="M1351 1041h-338q-3 40 -18 77t-42.5 68.5t-71.5 50.5t-100 19q-299 0 -299 -530q38 104 135.5 163t243.5 59q108 0 203.5 -32.5t168 -92.5t115 -152.5t42.5 -205.5q0 -102 -40 -191.5t-116.5 -159t-198 -110t-272.5 -40.5q-213 0 -368 92.5t-234 256t-79 378.5
q0 127 25 241.5t79.5 214.5t134 173t194.5 115t254 42q128 0 229.5 -28t164 -71.5t105 -103.5t60.5 -116t23 -117zM745 216q117 0 185 73.5t68 186.5q0 102 -68 176t-185 74t-184.5 -70.5t-67.5 -193.5q0 -107 68.5 -176.5t183.5 -69.5z" />
    <glyph glyph-name="seven" unicode="7" horiz-adv-x="1171" 
d="M47 1433h1107v-138q-136 -158 -234 -345t-147.5 -362.5t-71 -318t-23.5 -269.5h-453q16 117 61.5 244t95.5 227t134.5 230t140 207t150.5 203h-760v322z" />
    <glyph glyph-name="eight" unicode="8" horiz-adv-x="1482" 
d="M156 1087q0 49 16 98.5t57.5 102t105 92t168.5 65t238 25.5t238.5 -25.5t169 -65t105.5 -92t58 -102t16 -98.5q0 -121 -87 -210.5t-206 -117.5q99 -16 181.5 -63t135.5 -127t53 -177q0 -67 -20.5 -127t-69.5 -116t-123 -96.5t-189 -64.5t-260 -24t-260.5 24t-190 64.5
t-124 96.5t-70 116t-20.5 128q0 144 100.5 238t261.5 130q-128 33 -206 118t-78 208zM742 203q119 0 194 56.5t75 152.5q0 98 -74.5 158t-195.5 60q-117 0 -193 -60.5t-76 -157.5q0 -98 70.5 -153.5t199.5 -55.5zM741 846q96 0 156 60.5t60 145.5q0 89 -60 139t-156 50
q-94 0 -155 -52.5t-61 -136.5q0 -87 59 -146.5t157 -59.5z" />
    <glyph glyph-name="nine" unicode="9" horiz-adv-x="1472" 
d="M459 394q7 -86 65.5 -147.5t166.5 -61.5q84 0 143 38.5t92.5 111t48.5 164t15 210.5q-38 -103 -136 -162.5t-244 -59.5q-108 0 -203.5 32.5t-168 92.5t-114.5 152.5t-42 205.5q0 102 40 191.5t116.5 159t198 110t272.5 40.5q213 0 368 -92.5t234 -256t79 -378.5
q0 -127 -25.5 -241t-80 -213t-134 -171t-194.5 -113.5t-254 -41.5q-128 0 -229.5 27.5t-164 70t-105 101.5t-60.5 115t-23 116h339zM726 1220q-117 0 -185 -74t-68 -187q0 -102 68 -175.5t185 -73.5t185 70.5t68 192.5q0 107 -69 177t-184 70z" />
    <glyph glyph-name="colon" unicode=":" horiz-adv-x="524" 
d="M442 0h-360v382h360v-382zM442 660h-360v382h360v-382z" />
    <glyph glyph-name="semicolon" unicode=";" horiz-adv-x="532" 
d="M443 659h-361v382h361v-382zM85 381h366v-235q0 -79 -8 -143t-32 -131.5t-64 -113.5t-109.5 -77t-163.5 -34v158q74 16 110 58t36 136h-135v382z" />
    <glyph glyph-name="less" unicode="&#x3c;" horiz-adv-x="950" 
d="M66 339v352l799 391v-329l-576 -237l576 -240v-327z" />
    <glyph glyph-name="equal" unicode="=" horiz-adv-x="1210" 
d="M1142 1226v-256h-1074v256h1074zM1142 748v-256h-1074v256h1074z" />
    <glyph glyph-name="greater" unicode="&#x3e;" horiz-adv-x="950" 
d="M884 691v-352l-800 -390v329l576 236l-576 241v327z" />
    <glyph glyph-name="question" unicode="?" horiz-adv-x="1308" 
d="M634 1470q169 0 307 -48t223.5 -146t85.5 -230q0 -74 -25 -135t-67.5 -101t-94.5 -70t-112 -46t-112.5 -23.5t-102.5 -7.5v-134h-283v312h139q130 0 196.5 46t66.5 150q0 87 -64.5 142t-166.5 55q-55 0 -102.5 -12.5t-88 -39t-63.5 -75t-22 -113.5h-307q0 75 18.5 142
t63 129t111 107t169 71.5t231.5 26.5zM772 0h-360v382h360v-382z" />
    <glyph glyph-name="at" unicode="@" horiz-adv-x="1992" 
d="M1227 923h250l-75 -563v-5q-2 -31 14.5 -55t48.5 -24q80 0 146.5 104t66.5 275q0 167 -78 292q-78 124 -224 190q-149 67 -347 67q-193 0 -356 -93q-164 -93 -259 -256t-95 -359q0 -304 184 -460t526 -156q230 0 438 92l-10 -209q-71 -38 -193 -62q-120 -24 -265 -24
q-263 0 -474 98q-208 97 -328 283q-119 185 -119 434q0 259 128 465t348 320q222 115 484 115q256 0 458 -95q200 -94 312 -265t112 -389q0 -110 -33 -203.5t-87.5 -156.5t-125 -108t-143.5 -65.5t-145 -20.5q-103 0 -172 55t-84 128q-11 -26 -33.5 -55t-57.5 -58t-86 -47.5
t-109 -18.5q-76 0 -141.5 30t-112 85.5t-69.5 139t-15 184.5q9 110 51.5 196t103 135t127 74t133.5 25q101 0 171.5 -53.5t96.5 -133.5zM1132 534q11 110 -23 188.5t-111 78.5q-80 0 -135.5 -75t-66.5 -195q-11 -121 29.5 -195t122.5 -74q72 0 122.5 76t61.5 195v1z" />
    <glyph glyph-name="A" unicode="A" horiz-adv-x="1435" 
d="M892 1434l543 -1433h-412l-96 277h-462l-91 -277h-372l513 1433h377zM528 523h331l-166 542z" />
    <glyph glyph-name="B" unicode="B" horiz-adv-x="1437" 
d="M935 751q63 -3 122 -15.5t118.5 -39.5t103.5 -66t71.5 -100.5t27.5 -137.5q0 -84 -27.5 -152t-73 -112t-108 -73t-129 -41.5t-138.5 -12.5h-789v1433h738q142 0 247.5 -38t168 -120t62.5 -201q0 -66 -23.5 -120.5t-62 -90t-90.5 -61t-106 -37.5t-112 -15zM493 1155v-303
h289q67 0 113.5 37.5t46.5 114.5q0 73 -49 112t-117 39h-283zM811 290q74 0 121.5 41.5t47.5 121.5q0 76 -48 120t-121 44h-318v-327h318z" />
    <glyph glyph-name="C" unicode="C" horiz-adv-x="1626" 
d="M1188 578h391q-13 -128 -71.5 -240.5t-152.5 -195.5t-227.5 -131t-287.5 -48q-179 0 -327.5 56t-249 155t-155.5 237t-55 300q0 153 54 290.5t152.5 242t248 165.5t328.5 61q142 0 265 -41t203.5 -103.5t139 -139.5t85 -148t27.5 -130h-392q-5 29 -18 61t-40.5 67
t-63.5 63t-91 46t-120 18q-168 0 -271.5 -123t-103.5 -323q0 -197 104.5 -322t274.5 -125q79 0 144.5 26t108 70.5t68 98t32.5 113.5z" />
    <glyph glyph-name="D" unicode="D" horiz-adv-x="1507" 
d="M680 1434q90 0 179.5 -18t177.5 -53.5t163 -94t132.5 -134.5t90.5 -180.5t33 -225.5q0 -145 -47 -267.5t-125 -205.5t-179.5 -141.5t-209 -85.5t-215.5 -27h-567v1433h567zM657 290q172 0 284.5 115t112.5 323q0 207 -112 317t-285 110h-164v-865h164z" />
    <glyph glyph-name="E" unicode="E" 
d="M1193 1150h-700v-271h555v-273h-555v-310h700v-295h-1080v1433h1080v-284z" />
    <glyph glyph-name="F" unicode="F" horiz-adv-x="1206" 
d="M1181 1150h-688v-283h544v-272h-544v-594h-380v1433h1068v-284z" />
    <glyph glyph-name="G" unicode="G" horiz-adv-x="1662" 
d="M1190 705h397v-705h-334v457q-4 -38 -14.5 -79t-31 -90t-48.5 -94t-69.5 -87.5t-91.5 -74t-118 -50.5t-146 -19q-206 0 -361.5 98.5t-236.5 267.5t-81 382q0 123 32.5 235.5t98 208t158 166t219.5 110t275 39.5t270.5 -39t199.5 -98.5t131 -135t77 -145t25 -132.5h-392
q-6 43 -27.5 83t-58.5 75.5t-98.5 57t-137.5 21.5q-165 0 -267 -120.5t-102 -319.5q0 -203 101 -326.5t267 -123.5q89 0 158.5 38t111.5 102.5t65 139t29 158.5z" />
    <glyph glyph-name="H" unicode="H" horiz-adv-x="1490" 
d="M996 1434h381v-1433h-381v685h-503v-685h-380v1433h380v-475h503v475z" />
    <glyph glyph-name="I" unicode="I" horiz-adv-x="606" 
d="M493 1h-380v1433h380v-1433z" />
    <glyph glyph-name="J" unicode="J" horiz-adv-x="1140" 
d="M659 1434h380v-996q0 -215 -142 -344.5t-373 -129.5q-245 0 -374.5 121.5t-129.5 338.5v74h349v-85q0 -82 37 -128t108 -46q68 0 106.5 45.5t38.5 128.5v1021z" />
    <glyph glyph-name="K" unicode="K" horiz-adv-x="1492" 
d="M914 913l582 -911h-452l-394 628l-157 -169v-460h-380v1433h380v-508l444 507h462z" />
    <glyph glyph-name="L" unicode="L" horiz-adv-x="1175" 
d="M493 290h671v-290h-1051v1433h380v-1143z" />
    <glyph glyph-name="M" unicode="M" horiz-adv-x="1886" 
d="M1140 1434h633v-1433h-381v1181l-299 -1181h-322l-278 1230v-1230h-380v1433h646l184 -969z" />
    <glyph glyph-name="N" unicode="N" horiz-adv-x="1587" 
d="M1093 1434h380v-1433h-496l-484 1174v-1174h-380v1433h589l391 -1009v1009z" />
    <glyph glyph-name="O" unicode="O" horiz-adv-x="1730" 
d="M860 1471q170 0 319.5 -53.5t260 -150t174.5 -239t64 -310.5q0 -169 -63 -311t-172.5 -238.5t-258.5 -150.5t-318 -54t-318.5 54t-259.5 150.5t-173.5 239t-63.5 310.5q0 169 62.5 311t171.5 238.5t257.5 150t317.5 53.5zM869 266q188 0 299.5 123.5t111.5 328.5
t-112.5 328t-304.5 123q-193 0 -304 -122.5t-111 -328.5t112 -329t309 -123z" />
    <glyph glyph-name="P" unicode="P" horiz-adv-x="1359" 
d="M851 1434q205 0 341.5 -124.5t136.5 -313.5q0 -132 -66 -232t-175.5 -151t-244.5 -51h-350v-561h-380v1433h738zM788 835q65 0 109.5 43t44.5 118q0 71 -43.5 115t-104.5 44h-301v-320h295z" />
    <glyph glyph-name="Q" unicode="Q" horiz-adv-x="1730" 
d="M1678 725q0 -287 -172.5 -483.5t-448.5 -251.5v-244h-386v245q-276 55 -448 251.5t-172 482.5q0 169 62.5 311t171.5 238.5t257.5 150.5t317.5 54q170 0 319.5 -54t260 -150.5t174.5 -239t64 -310.5zM869 274q188 0 299.5 123t111.5 328t-112.5 328.5t-304.5 123.5
q-193 0 -304 -123t-111 -329t112 -328.5t309 -122.5z" />
    <glyph glyph-name="R" unicode="R" horiz-adv-x="1433" 
d="M941 633q185 -72 314 -255t143 -378h-462q-2 103 -20.5 196.5t-53 177t-93.5 139.5t-135 71h-141v-584h-380v1433h727q73 0 140.5 -14.5t127 -46t103.5 -77.5t69.5 -112t25.5 -146q0 -84 -31.5 -149.5t-80 -105.5t-114.5 -66t-128 -35.5t-126 -9.5l-27 -1zM765 863
q67 0 110.5 36t43.5 110q0 69 -42.5 107.5t-105.5 38.5h-278v-292h272z" />
    <glyph glyph-name="S" unicode="S" horiz-adv-x="1351" 
d="M990 803q50 -19 90 -40.5t82.5 -56.5t71 -76.5t47 -101.5t18.5 -131q0 -196 -170 -314.5t-454 -118.5q-152 0 -274.5 46t-197.5 121t-117 164t-47 182h345q18 -119 98 -184t194 -65q243 0 243 155q0 111 -138 165l-407 160q-113 44 -179.5 135t-66.5 230q0 54 17.5 107.5
t59 106.5t102.5 93.5t156 65.5t211 25q130 0 237 -39.5t173 -103t103 -137.5t41 -148h-348q-15 85 -71 125t-127 40q-81 0 -132 -34.5t-51 -93.5q0 -51 25.5 -78t79.5 -48z" />
    <glyph glyph-name="T" unicode="T" horiz-adv-x="1288" 
d="M10 1433h1267v-291h-443v-1142h-381v1142h-443v291z" />
    <glyph glyph-name="U" unicode="U" horiz-adv-x="1497" 
d="M1021 1434h381v-918q0 -110 -43.5 -209t-124 -175.5t-206.5 -122t-280 -45.5t-280 44.5t-206.5 120.5t-124 175.5t-43.5 211.5v918h381v-889q0 -116 70.5 -192.5t202.5 -76.5t202.5 76.5t70.5 192.5v889z" />
    <glyph glyph-name="V" unicode="V" horiz-adv-x="1329" 
d="M961 1434h361l-458 -1433h-423l-435 1433h378l284 -1040z" />
    <glyph glyph-name="W" unicode="W" horiz-adv-x="2048" 
d="M1673 1434h356l-343 -1433h-425l-238 1048l-243 -1048h-424l-338 1433h379l181 -972l230 972h454l215 -972z" />
    <glyph glyph-name="X" unicode="X" horiz-adv-x="1396" 
d="M908 755l484 -754h-417l-290 465l-287 -465h-394l481 745l-463 688h436l253 -429l248 429h402z" />
    <glyph glyph-name="Y" unicode="Y" horiz-adv-x="1355" 
d="M989 1434h376l-504 -928v-505h-380v505l-491 928h396l296 -627z" />
    <glyph glyph-name="Z" unicode="Z" horiz-adv-x="1277" 
d="M1224 1434v-255l-706 -889h706v-289h-1183v224l719 919h-673v290h1137z" />
    <glyph glyph-name="bracketleft" unicode="[" horiz-adv-x="825" 
d="M113 -307v1859h682v-249h-320v-1359h320v-251h-682z" />
    <glyph glyph-name="backslash" unicode="\" horiz-adv-x="622" 
d="M246 1552l385 -1859h-213l-389 1859h217z" />
    <glyph glyph-name="bracketright" unicode="]" horiz-adv-x="825" 
d="M29 1303v249h682v-1859h-682v251h320v1359h-320z" />
    <glyph glyph-name="asciicircum" unicode="^" horiz-adv-x="966" 
d="M352 1430h262l319 -528h-284l-165 320l-170 -320h-281z" />
    <glyph glyph-name="underscore" unicode="_" horiz-adv-x="1634" 
d="M1521 -214h-1408v106h1408v-106z" />
    <glyph glyph-name="a" unicode="a" 
d="M1146 212h69v-212h-324q-128 0 -128 121v74q-46 -103 -144.5 -167.5t-219.5 -64.5q-64 0 -121 15t-108.5 47.5t-82 92.5t-30.5 142q0 48 14 91t34 73t52.5 57t57 42.5t62 31.5t53 21.5t42.5 13.5l367 126v36q0 81 -40.5 116.5t-119.5 35.5q-151 0 -179 -201l-297 42
q6 42 25 84.5t58 87.5t93 78.5t138 55.5t185 22q239 0 369.5 -85.5t130.5 -258.5v-473q0 -21 12.5 -32.5t31.5 -11.5zM578 207q84 0 161 94v288l-169 -59q-62 -25 -96 -72.5t-34 -107.5q0 -67 38.5 -105t99.5 -38z" />
    <glyph glyph-name="b" unicode="b" horiz-adv-x="1351" 
d="M819 1072q99 0 183 -35.5t148 -103t100.5 -174t36.5 -239.5q0 -116 -27.5 -211t-72.5 -158.5t-106 -106.5t-126.5 -62.5t-134.5 -19.5q-134 0 -225.5 61.5t-128.5 161.5v-186h-364v1433h364v-589q14 35 41.5 71.5t70 73.5t106 60.5t135.5 23.5zM688 169q103 0 160 97
t57 249q0 160 -60.5 253.5t-168.5 93.5q-94 0 -152 -95.5t-58 -250.5v-3q0 -144 59.5 -244t162.5 -100z" />
    <glyph glyph-name="c" unicode="c" horiz-adv-x="1286" 
d="M672 210q47 0 85 18t62 48t39 63.5t22 69.5h349q-4 -57 -27 -117.5t-70 -119.5t-110.5 -105.5t-156 -75t-199.5 -28.5q-275 0 -442 149t-167 407q0 256 167 405.5t442 149.5q111 0 205 -27.5t157.5 -71.5t109 -101t67 -114.5t24.5 -113.5h-349q-11 78 -66 133.5
t-142 55.5q-108 0 -170 -81.5t-62 -231.5t59 -231t173 -81z" />
    <glyph glyph-name="d" unicode="d" horiz-adv-x="1351" 
d="M885 1432h363v-1433h-363v193q-15 -36 -40.5 -72t-67 -73.5t-105.5 -61t-140 -23.5q-204 0 -336.5 147t-132.5 411q0 115 28 210t73.5 157.5t107 105t126.5 61t133 18.5q130 0 225.5 -63t128.5 -159v582zM885 524v4q0 144 -59.5 244t-162.5 100t-160 -97.5t-57 -249.5
q0 -160 60 -253.5t168 -93.5q95 0 153 95.5t58 250.5z" />
    <glyph glyph-name="e" unicode="e" horiz-adv-x="1308" 
d="M1252 526v-23h-812q0 -124 58 -206t176 -82q179 0 217 165h349q-15 -87 -54.5 -159t-107 -131.5t-173 -93t-239.5 -33.5q-132 0 -243 37t-192.5 106.5t-127.5 175.5t-46 237q0 249 168 401.5t436 152.5q131 0 242 -42t187 -115.5t119 -174t43 -215.5zM447 634h421
q-4 78 -62.5 139.5t-150.5 61.5q-90 0 -145.5 -57.5t-62.5 -143.5z" />
    <glyph glyph-name="f" unicode="f" horiz-adv-x="780" 
d="M549 1169v-132h205v-236h-205v-800h-363v800h-149v236h149v188q0 84 51.5 146.5t147.5 62.5h346v-191h-116q-36 0 -51 -18.5t-15 -55.5z" />
    <glyph glyph-name="g" unicode="g" horiz-adv-x="1351" 
d="M885 1027h363v-950q0 -276 -169 -424t-465 -148q-154 0 -284.5 43.5t-192.5 96.5l138 240q2 -1 40 -26t59.5 -35.5t62 -29t83.5 -26.5t90 -8q140 0 207.5 70t67.5 231v122q-15 -36 -40.5 -72t-67 -73.5t-105.5 -60.5t-140 -23q-207 0 -338 146.5t-131 411.5
q0 115 27.5 209.5t73 157t106.5 105.5t126.5 61.5t134.5 18.5q137 0 229 -58t125 -159v180zM885 516v3q0 144 -59.5 244t-162.5 100t-160 -97t-57 -249q0 -160 60 -253.5t168 -93.5q95 0 153 95.5t58 250.5z" />
    <glyph glyph-name="h" unicode="h" horiz-adv-x="1296" 
d="M837 1073q177 0 270 -102.5t93 -284.5v-686h-363v636q0 84 -42.5 131t-117.5 47q-88 0 -147 -76t-64 -204v-534h-364v1433h364v-644q18 50 48 96.5t74.5 90.5t109.5 70.5t139 26.5z" />
    <glyph glyph-name="i" unicode="i" horiz-adv-x="569" 
d="M466 1h-364v1036h364v-1036zM466 1145h-364v225h364v-225z" />
    <glyph glyph-name="j" unicode="j" horiz-adv-x="569" 
d="M466 -363h-364v1398h364v-1398zM466 1143h-364v226h364v-226z" />
    <glyph glyph-name="k" unicode="k" horiz-adv-x="1255" 
d="M812 571l429 -571h-408l-244 348l-123 -149v-199h-364v1433h364v-862l363 465h355z" />
    <glyph glyph-name="l" unicode="l" horiz-adv-x="569" 
d="M466 1h-364v1433h364v-1433z" />
    <glyph glyph-name="m" unicode="m" horiz-adv-x="2019" 
d="M1560 1073q177 0 270 -102.5t93 -284.5v-686h-363v636q0 84 -42.5 131t-117.5 47q-88 0 -144.5 -75.5t-61.5 -204.5v-534h-363v636q0 84 -42.5 131t-117.5 47q-88 0 -144 -75.5t-61 -204.5v-534h-364v1036h364v-253q18 51 47 98t72.5 92t107.5 72.5t138 27.5
q146 0 235.5 -70.5t116.5 -200.5q40 104 143 187.5t234 83.5z" />
    <glyph glyph-name="n" unicode="n" horiz-adv-x="1296" 
d="M837 1073q177 0 270 -102.5t93 -284.5v-686h-363v636q0 84 -42.5 131t-117.5 47q-88 0 -147 -76t-64 -204v-534h-364v1036h364v-253q18 50 48 97.5t74.5 92.5t109.5 72.5t139 27.5z" />
    <glyph glyph-name="o" unicode="o" horiz-adv-x="1382" 
d="M688 1073q182 0 326.5 -67t228 -194t83.5 -294t-83.5 -294t-228 -194t-326.5 -67q-278 0 -455.5 152t-177.5 403q0 175 82.5 302t224.5 190t326 63zM691 188q123 0 186.5 92t63.5 238t-63.5 238t-186.5 92t-187 -92t-64 -238t64 -238t187 -92z" />
    <glyph glyph-name="o" unicode="&#xf8;" horiz-adv-x="1382" 
d="M688 1073q182 0 326.5 -67t228 -194t83.5 -294t-83.5 -294t-228 -194t-326.5 -67q-278 0 -455.5 152t-177.5 403q0 175 82.5 302t224.5 190t326 63zM691 188q123 0 186.5 92t63.5 238t-63.5 238t-186.5 92t-187 -92t-64 -238t64 -238t187 -92z" />
    <glyph glyph-name="p" unicode="p" horiz-adv-x="1351" 
d="M819 1074q204 0 336 -147t132 -411q0 -116 -27.5 -210.5t-73.5 -157t-107 -105t-126 -61t-133 -18.5q-130 0 -225.5 63t-128.5 159v-548h-364v1399h364v-192q15 36 40.5 72t67 73.5t105.5 60.5t140 23zM688 165q103 0 160 97t57 249q0 160 -60.5 253.5t-168.5 93.5
q-94 0 -152 -95.5t-58 -250.5v-4q0 -144 59.5 -243.5t162.5 -99.5z" />
    <glyph glyph-name="q" unicode="q" horiz-adv-x="1351" 
d="M885 1037h363v-1399h-363v555q-14 -35 -41.5 -71.5t-70 -73.5t-106 -60.5t-135.5 -23.5q-99 0 -183.5 35.5t-148.5 103t-100.5 174t-36.5 239.5q0 116 27.5 211t73 158.5t106.5 106.5t126.5 62.5t134.5 19.5q134 0 225.5 -61.5t128.5 -161.5v186zM885 520v4
q0 144 -59.5 244t-162.5 100t-160 -97.5t-57 -249.5q0 -160 60 -253.5t168 -93.5q95 0 153 95.5t58 250.5z" />
    <glyph glyph-name="r" unicode="r" horiz-adv-x="829" 
d="M747 1073h50v-341h-140q-103 0 -147 -58t-44 -173v-501h-364v1036h364v-296q10 53 32.5 107.5t57 105.5t84.5 84.5t107 35.5z" />
    <glyph glyph-name="s" unicode="s" horiz-adv-x="1175" 
d="M795 615q34 -10 56.5 -17.5t60 -23t63 -31t56 -40.5t48.5 -52.5t30.5 -65.5t12.5 -82q0 -90 -41.5 -157t-115.5 -106.5t-167.5 -58t-206.5 -18.5q-253 0 -390 95.5t-152 245.5h352q13 -61 64.5 -96t129.5 -35q66 0 111 23t45 76q0 67 -115 103l-263 81q-53 16 -93.5 35
t-85.5 53t-70 87t-25 121q0 152 129 236.5t346 84.5q206 0 337.5 -88.5t148.5 -217.5h-346q-25 106 -151 106q-60 0 -92 -25t-32 -64q0 -60 86 -86q209 -65 270 -83z" />
    <glyph glyph-name="t" unicode="t" horiz-adv-x="811" 
d="M761 800h-199v-518q0 -39 12.5 -59t47.5 -20h105v-203h-358q-100 0 -135 50t-35 155v595h-166v236h188l80 246h261v-246h199v-236z" />
    <glyph glyph-name="u" unicode="u" horiz-adv-x="1294" 
d="M827 1036h363v-1036h-363v253q-18 -50 -48 -97.5t-75 -92.5t-110 -72.5t-139 -27.5q-177 0 -270 102.5t-93 285.5v685h363v-636q0 -84 43 -130.5t118 -46.5q88 0 147 76t64 204v533z" />
    <glyph glyph-name="v" unicode="v" horiz-adv-x="1153" 
d="M799 1037h341l-403 -1036h-326l-399 1036h348l218 -691z" />
    <glyph glyph-name="w" unicode="w" horiz-adv-x="1763" 
d="M1417 1035h330l-402 -1035h-304l-163 578l-166 -578h-311l-387 1036h353l195 -660l187 659h286l167 -659z" />
    <glyph glyph-name="x" unicode="x" horiz-adv-x="1183" 
d="M799 531l365 -531h-360l-213 311l-208 -311h-365l388 530l-363 506h350l205 -310l208 310h335z" />
    <glyph glyph-name="y" unicode="y" horiz-adv-x="1165" 
d="M810 1037h341l-464 -1249q-60 -150 -185 -150h-334v250h212q19 0 31.5 3.5t21 14t12 18t9.5 25.5v1l-442 1087h348l235 -684z" />
    <glyph glyph-name="z" unicode="z" horiz-adv-x="1054" 
d="M440 255h561v-254h-942v204l498 578h-487v254h907v-177z" />
    <glyph glyph-name="braceleft" unicode="{" horiz-adv-x="856" 
d="M635 -307q-153 0 -238 36.5t-119 111t-34 206.5v259q0 110 -40 156.5t-143 49.5v253q108 3 145 45t37 153v241q0 348 383 348h212v-243h-94q-73 0 -105.5 -35t-32.5 -108v-249q0 -67 -26 -118t-72.5 -82.5t-103 -49.5t-126.5 -26q146 -18 236.5 -89t90.5 -203v-286
q0 -67 28.5 -96t96.5 -29h116v-245h-211z" />
    <glyph glyph-name="verticalbar" unicode="|" horiz-adv-x="428" 
d="M315 -307h-202v1859h202v-1859z" />
    <glyph glyph-name="braceright" unicode="}" horiz-adv-x="858" 
d="M223 1552q153 0 238 -36.5t119 -111t34 -206.5v-259q0 -110 40 -156.5t143 -49.5v-254q-108 -3 -145 -44.5t-37 -152.5v-241q0 -348 -382 -348h-213v243h94q73 0 105.5 34.5t32.5 107.5v250q0 67 26 118t73 82.5t103.5 49.5t126.5 26q-70 9 -126.5 29t-103 54t-72.5 87
t-26 121v286q0 67 -28.5 96.5t-96.5 29.5h-116v245h211z" />
    <glyph glyph-name="nonbreakingspace" unicode="&#xa0;" horiz-adv-x="757" 
 />
    <glyph glyph-name="exclamdown" unicode="&#xa1;" horiz-adv-x="561" 
d="M461 857h-361v382h361v-382zM365 693q8 -86 36.5 -199t52 -224t23.5 -214v-250h-393v250q0 103 23.5 214t52 224t36.5 199h169z" />
    <glyph glyph-name="cent" unicode="&#xa2;" horiz-adv-x="1314" 
d="M748 218q42 13 74 45t48 68t24 77h349q-4 -68 -37 -139.5t-91.5 -137.5t-154.5 -113t-212 -58v-169h-121v167q-252 15 -403.5 165t-151.5 395q0 244 151.5 396t403.5 168v173h121v-174q97 -8 179.5 -40t138.5 -77t96 -101t59.5 -111t21.5 -107h-349q-9 62 -47 112t-99 68
v-607zM454 521q0 -129 44 -207.5t129 -98.5v612q-82 -21 -127.5 -99.5t-45.5 -206.5z" />
    <glyph glyph-name="sterling" unicode="&#xa3;" horiz-adv-x="1495" 
d="M1091 431l348 -55q-27 -192 -146.5 -305.5t-286.5 -113.5q-106 0 -261.5 27.5t-283.5 27.5q-27 0 -58 -3t-54.5 -6.5t-59.5 -11t-51.5 -11t-53 -12.5t-43.5 -11l-86 241q153 39 220 110.5t67 216.5q0 54 -10 117h-203v174h167q-23 101 -23 180q0 219 143.5 349.5
t375.5 130.5q233 0 379.5 -105.5t177.5 -303.5l-359 -79q-8 100 -55.5 167.5t-127.5 67.5q-90 0 -126.5 -57.5t-36.5 -163.5q0 -73 25 -186h349v-174h-316q4 -46 4 -73q1 -110 -79 -202t-187 -131q9 3 39.5 12.5t53 16t56.5 12.5t63 6q67 0 145.5 -21t128.5 -21
q66 0 110.5 50.5t54.5 139.5z" />
    <glyph glyph-name="yen" unicode="&#xa5;" horiz-adv-x="1386" 
d="M1381 1433l-487 -899h250v-129h-266v-86h266v-129h-266v-190h-380v190h-254v129h254v86h-254v129h238l-476 899h396l296 -626l308 626h375z" />
    <glyph glyph-name="softhyphen" unicode="&#xad;" horiz-adv-x="0" 
 />
    <glyph glyph-name="mu" unicode="&#xb5;" horiz-adv-x="1292" 
d="M831 1041h363v-1041h-363v247q-18 -50 -48 -97.5t-75 -92.5t-110 -72.5t-139 -27.5v-320h-363v1404h363v-647q0 -84 43 -131t118 -47q88 0 147 76t64 204v545z" />
    <glyph glyph-name="paragraph" unicode="&#xb6;" horiz-adv-x="1275" 
d="M537 1433h659v-171h-85v-1625h-186v1625h-140v-1625h-186v924h-54q-135 0 -244.5 51t-175.5 151t-66 232q0 189 136.5 313.5t341.5 124.5z" />
    <glyph glyph-name="onequarter" unicode="&#xbc;" horiz-adv-x="1624" 
d="M1089 1433h216l-921 -1433h-218zM196 643v559h-141v102q94 4 148 42.5t71 86.5h127v-790h-205zM1422 790v-482h158v-132h-158v-176h-200v176h-393v155l353 459h240zM1222 308v311l-236 -311h236z" />
    <glyph glyph-name="onehalf" unicode="&#xbd;" horiz-adv-x="1699" 
d="M1089 1433h216l-921 -1433h-218zM401 643h-205v559h-141v102q94 4 148 42.5t71 86.5h127v-790zM1632 562q0 -92 -77 -169q-58 -58 -239 -175q-10 -7 -83 -54h395v-164h-642v87q56 48 137.5 115t131.5 109t72 64q45 44 62.5 78t17.5 81q0 62 -37 102t-103 40
q-62 0 -100.5 -44.5t-38.5 -107.5q0 -53 28 -106h-161q-19 57 -19 116q0 123 90.5 201.5t233.5 78.5q87 0 153.5 -23t104 -60.5t56 -80.5t18.5 -88z" />
    <glyph glyph-name="threequarters" unicode="&#xbe;" horiz-adv-x="1908" 
d="M1375 1433h216l-921 -1433h-218zM773 867q0 -64 -30.5 -113.5t-83 -79t-117 -44.5t-137.5 -15q-98 0 -174 29t-125 97t-49 167h172q0 -69 47.5 -114.5t124.5 -45.5q69 0 107.5 29.5t38.5 87.5q0 118 -156 118h-107v127h108q58 0 90.5 26.5t32.5 77.5q0 47 -36 77.5
t-91 30.5q-56 0 -95.5 -35.5t-38.5 -105.5h-166q0 53 16 98.5t51 86t99 63.5t152 23q62 0 118 -13.5t102.5 -39.5t73.5 -70t27 -101q0 -68 -53 -117t-130 -55q95 -7 162 -54t67 -135zM1706 790v-482h158v-132h-157v-176h-201v176h-392v155l352 459h240zM1506 308v311
l-236 -311h236z" />
    <glyph glyph-name="questiondown" unicode="&#xbf;" horiz-adv-x="1296" 
d="M954 244h307q0 -75 -19 -142.5t-63 -130.5t-111 -108.5t-169.5 -72.5t-231.5 -27q-169 0 -307.5 49.5t-223.5 149t-85 231.5q0 74 25 135t67.5 101t94.5 70t112 46t112.5 23.5t102.5 7.5v133h284v-311h-139q-130 0 -196.5 -46t-66.5 -150q0 -87 64.5 -145t166.5 -58
q55 0 102.5 13.5t88 41t63.5 76.5t22 114zM890 857h-360v382h360v-382z" />
    <glyph glyph-name="Agrave" unicode="&#xc0;" horiz-adv-x="1439" 
d="M877 1513h-262l-210 214h294zM894 1433l543 -1433h-412l-96 277h-462l-91 -277h-372l513 1433h377zM530 523h331l-166 542z" />
    <glyph glyph-name="Aacute" unicode="&#xc1;" horiz-adv-x="1439" 
d="M1007 1727l-210 -214h-261l177 214h294zM894 1433l543 -1433h-412l-96 277h-462l-91 -277h-372l513 1433h377zM530 523h331l-166 542z" />
    <glyph glyph-name="Acircumflex" unicode="&#xc2;" horiz-adv-x="1439" 
d="M695 1677l-119 -164h-265l197 237h374l197 -237h-265zM894 1433l543 -1433h-412l-96 277h-462l-91 -277h-372l513 1433h377zM530 523h331l-166 542z" />
    <glyph glyph-name="Atilde" unicode="&#xc3;" horiz-adv-x="1439" 
d="M586 1616q-30 0 -49 -24.5t-35 -80.5l-152 67q21 102 82 158t149 56q48 0 91 -19t68.5 -42.5t56.5 -42.5t58 -19q30 0 49.5 25t35.5 81l151 -68q-21 -102 -82 -158t-149 -56q-48 0 -91 19t-68.5 42.5t-56.5 42.5t-58 19zM894 1433l543 -1433h-412l-96 277h-462l-91 -277
h-372l513 1433h377zM530 523h331l-166 542z" />
    <glyph glyph-name="Adieresis" unicode="&#xc4;" horiz-adv-x="1439" 
d="M630 1513h-269v220h269v-220zM1030 1513h-269v220h269v-220zM894 1433l543 -1433h-412l-96 277h-462l-91 -277h-372l513 1433h377zM530 523h331l-166 542z" />
    <glyph glyph-name="Aring" unicode="&#xc5;" horiz-adv-x="1439" 
d="M720 1488q-106 0 -171 59.5t-65 157.5t65 157.5t171 59.5q107 0 172.5 -59.5t65.5 -157.5t-65.5 -157.5t-172.5 -59.5zM720 1802q-44 0 -67 -27.5t-23 -69.5t23.5 -69.5t66.5 -27.5t66 27.5t23 69.5t-23.5 69.5t-65.5 27.5zM894 1433l543 -1433h-412l-96 277h-462
l-91 -277h-372l513 1433h377zM530 523h331l-166 542z" />
    <glyph glyph-name="AE" unicode="&#xc6;" horiz-adv-x="1916" 
d="M1851 1149h-849l103 -271h602v-273h-499l117 -310h526v-295h-414h-412l-96 277h-462l-91 -277h-372l513 1433h377h957v-284zM530 523h331l-166 542z" />
    <glyph glyph-name="Ccedilla" unicode="&#xc7;" horiz-adv-x="1615" 
d="M829 -43h-13l-31 -80q15 20 47 33.5t71 13.5q81 0 136.5 -45t55.5 -129q0 -91 -72.5 -140.5t-198.5 -49.5q-87 0 -159.5 34.5t-102.5 92.5l171 50q6 -22 28.5 -39t49.5 -17q34 0 57.5 20t23.5 57q0 30 -21.5 52.5t-57.5 22.5q-41 0 -63 -39l-133 30l54 145
q-192 31 -333 136.5t-213 261.5t-72 343q0 154 54 292t152.5 243.5t248 167.5t328.5 62q142 0 263.5 -41t200.5 -103.5t136 -140t82 -148t26 -129.5h-391q-6 37 -27.5 76.5t-59.5 78t-101 63.5t-140 25q-168 0 -268.5 -120t-100.5 -320q0 -197 104.5 -319t274.5 -122
q147 0 236.5 88.5t104.5 213.5h392q-9 -123 -66 -235t-150.5 -197.5t-230 -136.5t-292.5 -51z" />
    <glyph glyph-name="Egrave" unicode="&#xc8;" 
d="M888 1513h-261l-210 214h294zM1193 1149h-700v-271h555v-272h-555v-311h700v-295h-1080v1433h1080v-284z" />
    <glyph glyph-name="Eacute" unicode="&#xc9;" 
d="M888 1727l-210 -214h-261l177 214h294zM1193 1149h-700v-271h555v-272h-555v-311h700v-295h-1080v1433h1080v-284z" />
    <glyph glyph-name="Ecircumflex" unicode="&#xca;" 
d="M653 1677l-119 -164h-266l197 237h375l197 -237h-266zM1193 1149h-700v-271h555v-272h-555v-311h700v-295h-1080v1433h1080v-284z" />
    <glyph glyph-name="Edieresis" unicode="&#xcb;" 
d="M587 1513h-269v220h269v-220zM987 1513h-269v220h269v-220zM1193 1149h-700v-271h555v-272h-555v-311h700v-295h-1080v1433h1080v-284z" />
    <glyph glyph-name="Igrave" unicode="&#xcc;" horiz-adv-x="608" 
d="M494 1513h-261l-210 214h294zM494 0h-380v1433h380v-1433z" />
    <glyph glyph-name="Iacute" unicode="&#xcd;" horiz-adv-x="606" 
d="M493 0h-380v1433h380v-1433zM592 1727l-211 -214h-261l178 214h294z" />
    <glyph glyph-name="Icircumflex" unicode="&#xce;" horiz-adv-x="606" 
d="M302 1677l-119 -164h-265l197 237h374l197 -237h-265zM492 0h-380v1433h380v-1433z" />
    <glyph glyph-name="Idieresis" unicode="&#xcf;" horiz-adv-x="604" 
d="M237 1513h-270v220h270v-220zM637 1513h-269v220h269v-220zM492 0h-380v1433h380v-1433z" />
    <glyph glyph-name="Eth" unicode="&#xd0;" horiz-adv-x="1583" 
d="M757 1433q109 0 216 -24.5t209 -80t179.5 -135.5t124.5 -200t47 -265t-47 -267.5t-125 -206t-179.5 -142t-209 -85.5t-215.5 -27h-567v620h-149v208h149v605h567zM735 290q172 0 284.5 115t112.5 323q0 207 -112 317t-285 110h-165v-327h259v-208h-259v-330h165z" />
    <glyph glyph-name="Ntilde" unicode="&#xd1;" horiz-adv-x="1587" 
d="M659 1641q-30 0 -49.5 -25t-35.5 -80l-151 68q21 102 81.5 157.5t148.5 55.5q48 0 91 -19t68.5 -42.5t56.5 -42.5t58 -19q30 0 49.5 25t35.5 81l151 -68q-21 -102 -81.5 -157.5t-148.5 -55.5q-48 0 -91 19t-68.5 42t-56.5 42t-58 19zM1093 1433h380v-1433h-496l-484 1174
v-1174h-380v1433h589l391 -1008v1008z" />
    <glyph glyph-name="Ograve" unicode="&#xd2;" horiz-adv-x="1730" 
d="M1100 1513h-261l-210 214h294zM860 1476q169 0 319 -55t260.5 -152.5t174.5 -241t64 -311.5q0 -224 -108.5 -398.5t-292.5 -267.5t-411 -93q-169 0 -318.5 54.5t-259.5 152t-173.5 241t-63.5 311.5q0 169 62.5 312t171.5 240.5t257.5 152.5t317.5 55zM869 265
q188 0 299.5 123t111.5 328t-112.5 328.5t-304.5 123.5q-193 0 -304 -123t-111 -329t112 -328.5t309 -122.5z" />
    <glyph glyph-name="Oacute" unicode="&#xd3;" horiz-adv-x="1730" 
d="M860 1476q169 0 319 -55t260.5 -152.5t174.5 -241t64 -311.5q0 -224 -108.5 -398.5t-292.5 -267.5t-411 -93q-169 0 -318.5 54.5t-259.5 152t-173.5 241t-63.5 311.5q0 169 62.5 312t171.5 240.5t257.5 152.5t317.5 55zM869 265q188 0 299.5 123t111.5 328t-112.5 328.5
t-304.5 123.5q-193 0 -304 -123t-111 -329t112 -328.5t309 -122.5zM1100 1727l-210 -214h-261l177 214h294z" />
    <glyph glyph-name="Ocircumflex" unicode="&#xd4;" horiz-adv-x="1730" 
d="M864 1677l-119 -164h-265l197 237h375l196 -237h-265zM860 1476q169 0 319 -55t260.5 -152.5t174.5 -241t64 -311.5q0 -224 -108.5 -398.5t-292.5 -267.5t-411 -93q-169 0 -318.5 54.5t-259.5 152t-173.5 241t-63.5 311.5q0 169 62.5 312t171.5 240.5t257.5 152.5
t317.5 55zM869 265q188 0 299.5 123t111.5 328t-112.5 328.5t-304.5 123.5q-193 0 -304 -123t-111 -329t112 -328.5t309 -122.5z" />
    <glyph glyph-name="Otilde" unicode="&#xd5;" horiz-adv-x="1730" 
d="M730 1641q-30 0 -49 -24.5t-35 -80.5l-152 68q21 101 82 157t149 56q48 0 91 -19t68.5 -42.5t56.5 -42.5t58 -19q30 0 49 25t35 81l152 -68q-21 -101 -82 -157t-149 -56q-48 0 -91 19t-68.5 42t-56.5 42t-58 19zM860 1476q169 0 319 -55t260.5 -152.5t174.5 -241
t64 -311.5q0 -224 -108.5 -398.5t-292.5 -267.5t-411 -93q-169 0 -318.5 54.5t-259.5 152t-173.5 241t-63.5 311.5q0 169 62.5 312t171.5 240.5t257.5 152.5t317.5 55zM869 265q188 0 299.5 123t111.5 328t-112.5 328.5t-304.5 123.5q-193 0 -304 -123t-111 -329t112 -328.5
t309 -122.5z" />
    <glyph glyph-name="Odieresis" unicode="&#xd6;" horiz-adv-x="1730" 
d="M799 1513h-269v220h269v-220zM1199 1513h-269v220h269v-220zM860 1476q169 0 319 -55t260.5 -152.5t174.5 -241t64 -311.5q0 -224 -108.5 -398.5t-292.5 -267.5t-411 -93q-169 0 -318.5 54.5t-259.5 152t-173.5 241t-63.5 311.5q0 169 62.5 312t171.5 240.5t257.5 152.5
t317.5 55zM869 265q188 0 299.5 123t111.5 328t-112.5 328.5t-304.5 123.5q-193 0 -304 -123t-111 -329t112 -328.5t309 -122.5z" />
    <glyph glyph-name="Oslash" unicode="&#xd8;" horiz-adv-x="1734" 
d="M1409 1295q128 -102 199.5 -250.5t71.5 -328.5q0 -224 -108.5 -398.5t-292.5 -267.5t-411 -93q-240 0 -431 104l-95 -121l-110 79l92 117q-128 102 -199.5 251t-71.5 329q0 169 62.5 312t171.5 240.5t257.5 152t317.5 54.5q240 0 433 -105l96 122l110 -79zM450 716
q0 -185 91 -304l549 697q-97 58 -225 58q-193 0 -304 -122.5t-111 -328.5zM871 265q188 0 299.5 123t111.5 328q0 184 -91 303l-548 -697q97 -57 228 -57z" />
    <glyph glyph-name="Ugrave" unicode="&#xd9;" horiz-adv-x="1497" 
d="M984 1513h-262l-210 214h294zM1021 1433h381v-923q0 -110 -43.5 -209t-124 -176t-206.5 -122.5t-280 -45.5t-280 44.5t-206.5 121t-124 176t-43.5 211.5v923h381v-895q0 -116 70.5 -192.5t202.5 -76.5t202.5 76.5t70.5 192.5v895z" />
    <glyph glyph-name="Uacute" unicode="&#xda;" horiz-adv-x="1497" 
d="M1021 1433h381v-923q0 -110 -43.5 -209t-124 -176t-206.5 -122.5t-280 -45.5t-280 44.5t-206.5 121t-124 176t-43.5 211.5v923h381v-895q0 -116 70.5 -192.5t202.5 -76.5t202.5 76.5t70.5 192.5v895zM984 1727l-210 -214h-262l178 214h294z" />
    <glyph glyph-name="Ucircumflex" unicode="&#xdb;" horiz-adv-x="1497" 
d="M748 1677l-119 -164h-265l197 237h374l197 -237h-265zM1021 1433h381v-923q0 -110 -43.5 -209t-124 -176t-206.5 -122.5t-280 -45.5t-280 44.5t-206.5 121t-124 176t-43.5 211.5v923h381v-895q0 -116 70.5 -192.5t202.5 -76.5t202.5 76.5t70.5 192.5v895z" />
    <glyph glyph-name="Udieresis" unicode="&#xdc;" horiz-adv-x="1497" 
d="M683 1513h-270v220h270v-220zM1083 1513h-270v220h270v-220zM1021 1433h381v-923q0 -110 -43.5 -209t-124 -176t-206.5 -122.5t-280 -45.5t-280 44.5t-206.5 121t-124 176t-43.5 211.5v923h381v-895q0 -116 70.5 -192.5t202.5 -76.5t202.5 76.5t70.5 192.5v895z" />
    <glyph glyph-name="Yacute" unicode="&#xdd;" horiz-adv-x="1357" 
d="M915 1727l-210 -214h-261l177 214h294zM991 1433h376l-503 -928v-505h-381v505l-491 928h396l296 -626z" />
    <glyph glyph-name="Thorn" unicode="&#xde;" horiz-adv-x="1361" 
d="M851 1144q205 0 341.5 -124t136.5 -313q0 -132 -66 -232.5t-175.5 -151.5t-244.5 -51h-350v-272h-380v1433h380v-289h358zM788 545q65 0 109.5 43t44.5 119q0 71 -43.5 115t-104.5 44h-301v-321h295z" />
    <glyph glyph-name="germandbls" unicode="&#xdf;" horiz-adv-x="1288" 
d="M788 750q63 -3 121.5 -15.5t118.5 -39.5t104 -65.5t71.5 -100t27.5 -137.5q0 -84 -27.5 -152t-73 -112t-108 -73.5t-129 -42t-138.5 -12.5h-170v290h79q74 0 121.5 41.5t47.5 121.5q0 76 -48 119.5t-121 43.5h-79v235h50q67 0 113.5 37.5t46.5 114.5q0 73 -49.5 112.5
t-116.5 39.5h-44h-53q-66 0 -66 -80v-1075h-364v1133q0 131 78 215.5t219 84.5h186h119q142 0 247 -38t167.5 -119.5t62.5 -200.5q0 -82 -35 -145.5t-93.5 -100.5t-125 -56t-139.5 -23z" />
    <glyph glyph-name="agrave" unicode="&#xe0;" 
d="M797 1177h-261l-210 213h294zM1146 212h69v-212h-324q-128 0 -128 121v74q-46 -103 -144.5 -167.5t-219.5 -64.5q-64 0 -121 15t-108.5 47.5t-82 92.5t-30.5 142q0 48 14 91t34 73t52.5 57t57 42.5t62 31.5t53 21.5t42.5 13.5l367 126v36q0 81 -40.5 116.5t-119.5 35.5
q-151 0 -179 -201l-297 42q6 42 25 84.5t58 87.5t93 78.5t138 55.5t185 22q239 0 369.5 -85.5t130.5 -258.5v-473q0 -21 12.5 -32.5t31.5 -11.5zM739 301v288l-169 -59q-62 -25 -96 -72.5t-34 -107.5q0 -67 38.5 -105t99.5 -38q84 0 161 94z" />
    <glyph glyph-name="aacute" unicode="&#xe1;" 
d="M905 1390l-210 -214h-261l177 214h294zM1146 212h69v-212h-324q-128 0 -128 121v74q-46 -103 -144.5 -167.5t-219.5 -64.5q-64 0 -121 15t-108.5 47.5t-82 92.5t-30.5 142q0 48 14 91t34 73t52.5 57t57 42.5t62 31.5t53 21.5t42.5 13.5l367 126v36q0 81 -40.5 116.5
t-119.5 35.5q-151 0 -179 -201l-297 42q6 42 25 84.5t58 87.5t93 78.5t138 55.5t185 22q239 0 369.5 -85.5t130.5 -258.5v-473q0 -21 12.5 -32.5t31.5 -11.5zM739 301v288l-169 -59q-62 -25 -96 -72.5t-34 -107.5q0 -67 38.5 -105t99.5 -38q84 0 161 94z" />
    <glyph glyph-name="acircumflex" unicode="&#xe2;" 
d="M636 1340l-119 -164h-265l197 237h374l197 -237h-265zM1146 212h69v-212h-324q-128 0 -128 121v74q-46 -103 -144.5 -167.5t-219.5 -64.5q-64 0 -121 15t-108.5 47.5t-82 92.5t-30.5 142q0 48 14 91t34 73t52.5 57t57 42.5t62 31.5t53 21.5t42.5 13.5l367 126v36
q0 81 -40.5 116.5t-119.5 35.5q-151 0 -179 -201l-297 42q6 42 25 84.5t58 87.5t93 78.5t138 55.5t185 22q239 0 369.5 -85.5t130.5 -258.5v-473q0 -21 12.5 -32.5t31.5 -11.5zM739 301v288l-169 -59q-62 -25 -96 -72.5t-34 -107.5q0 -67 38.5 -105t99.5 -38q84 0 161 94z
" />
    <glyph glyph-name="atilde" unicode="&#xe3;" 
d="M502 1273q-30 0 -49.5 -25t-35.5 -80l-151 68q21 101 82 157t149 56q40 0 75 -12.5t59.5 -30.5t46.5 -36.5t45.5 -31t46.5 -12.5q30 0 49.5 25t35.5 81l152 -68q-21 -101 -82 -157t-149 -56q-48 0 -91 19t-68.5 42t-56.5 42t-58 19zM1146 212h69v-212h-324
q-128 0 -128 121v74q-46 -103 -144.5 -167.5t-219.5 -64.5q-64 0 -121 15t-108.5 47.5t-82 92.5t-30.5 142q0 48 14 91t34 73t52.5 57t57 42.5t62 31.5t53 21.5t42.5 13.5l367 126v36q0 81 -40.5 116.5t-119.5 35.5q-151 0 -179 -201l-297 42q6 42 25 84.5t58 87.5t93 78.5
t138 55.5t185 22q239 0 369.5 -85.5t130.5 -258.5v-473q0 -21 12.5 -32.5t31.5 -11.5zM739 301v288l-169 -59q-62 -25 -96 -72.5t-34 -107.5q0 -67 38.5 -105t99.5 -38q84 0 161 94z" />
    <glyph glyph-name="adieresis" unicode="&#xe4;" 
d="M571 1176h-270v220h270v-220zM971 1176h-269v220h269v-220zM1146 212h69v-212h-324q-128 0 -128 121v74q-46 -103 -144.5 -167.5t-219.5 -64.5q-64 0 -121 15t-108.5 47.5t-82 92.5t-30.5 142q0 48 14 91t34 73t52.5 57t57 42.5t62 31.5t53 21.5t42.5 13.5l367 126v36
q0 81 -40.5 116.5t-119.5 35.5q-151 0 -179 -201l-297 42q6 42 25 84.5t58 87.5t93 78.5t138 55.5t185 22q239 0 369.5 -85.5t130.5 -258.5v-473q0 -21 12.5 -32.5t31.5 -11.5zM739 301v288l-169 -59q-62 -25 -96 -72.5t-34 -107.5q0 -67 38.5 -105t99.5 -38q84 0 161 94z
" />
    <glyph glyph-name="aring" unicode="&#xe5;" 
d="M635 1151q-106 0 -171 59.5t-65 157.5t65 157.5t171 59.5q107 0 172.5 -59.5t65.5 -157.5t-65.5 -157.5t-172.5 -59.5zM635 1465q-44 0 -66.5 -27.5t-22.5 -69.5t23.5 -69.5t65.5 -27.5q43 0 66.5 27.5t23.5 69.5t-24 69.5t-66 27.5zM1146 212h69v-212h-324
q-128 0 -128 121v74q-46 -103 -144.5 -167.5t-219.5 -64.5q-64 0 -121 15t-108.5 47.5t-82 92.5t-30.5 142q0 48 14 91t34 73t52.5 57t57 42.5t62 31.5t53 21.5t42.5 13.5l367 126v36q0 81 -40.5 116.5t-119.5 35.5q-151 0 -179 -201l-297 42q6 42 25 84.5t58 87.5t93 78.5
t138 55.5t185 22q239 0 369.5 -85.5t130.5 -258.5v-473q0 -21 12.5 -32.5t31.5 -11.5zM739 301v288l-169 -59q-62 -25 -96 -72.5t-34 -107.5q0 -67 38.5 -105t99.5 -38q84 0 161 94z" />
    <glyph glyph-name="ae" unicode="&#xe6;" horiz-adv-x="2117" 
d="M2061 526v-21h-813q0 -124 59 -204.5t180 -80.5q88 0 142 43t71 117h349q-15 -86 -56 -160t-108.5 -134t-173 -94.5t-236.5 -34.5q-177 0 -311 87.5t-170 197.5q-14 -34 -37.5 -69.5t-62.5 -75t-85 -70t-110 -50.5t-133 -20q-104 0 -195 37.5t-160 107t-108.5 178
t-39.5 241.5q0 116 27.5 211.5t73 159.5t106.5 108t126.5 64t134.5 20q135 0 228 -62.5t126 -165.5l34 186h302q111 42 249 42q130 0 241.5 -44t187.5 -119t119 -177.5t43 -217.5zM885 525v3q0 144 -59.5 244t-162.5 100t-160 -97.5t-57 -249.5q0 -160 60 -253t168 -93
q95 0 153 95.5t58 250.5zM1261 634h416q-7 78 -63 136t-144 58q-84 0 -141.5 -54t-67.5 -140z" />
    <glyph glyph-name="ccedilla" unicode="&#xe7;" horiz-adv-x="1286" 
d="M672 209q47 0 85 18t62 48t39 63.5t22 69.5h349q-4 -57 -26.5 -116.5t-67.5 -118.5t-106.5 -106t-151 -77.5t-193.5 -32.5h-5l-31 -82q15 20 47.5 34t70.5 14q81 0 136.5 -45t55.5 -130q0 -91 -72.5 -140t-198.5 -49q-87 0 -159.5 34t-102.5 92l171 50q6 -21 28.5 -38
t49.5 -17q34 0 57.5 19.5t23.5 56.5q0 30 -21.5 53t-57.5 23q-41 0 -63 -40l-133 30l53 145q-219 36 -347.5 181.5t-128.5 369.5q0 257 168 411.5t441 154.5q111 0 205 -28.5t157.5 -74.5t109 -104.5t67 -117t24.5 -114.5h-349q-11 78 -66 133.5t-142 55.5
q-108 0 -170 -81.5t-62 -231.5t59 -231t173 -81z" />
    <glyph glyph-name="egrave" unicode="&#xe8;" horiz-adv-x="1308" 
d="M893 1167h-261l-210 214h294zM1252 526v-21h-812q0 -124 58.5 -204.5t179.5 -80.5q88 0 142 43t71 117h349q-12 -69 -38.5 -129t-73.5 -115t-110.5 -94t-153.5 -62t-198 -23q-176 0 -313 65t-216.5 194t-79.5 303q0 250 168.5 407.5t435.5 157.5q130 0 241.5 -44
t187.5 -119t119 -177.5t43 -217.5zM452 634h416q-7 78 -63.5 136t-143.5 58q-84 0 -141.5 -54t-67.5 -140z" />
    <glyph glyph-name="eacute" unicode="&#xe9;" horiz-adv-x="1308" 
d="M893 1381l-210 -214h-261l177 214h294zM1252 526v-21h-812q0 -124 58.5 -204.5t179.5 -80.5q88 0 142 43t71 117h349q-12 -69 -38.5 -129t-73.5 -115t-110.5 -94t-153.5 -62t-198 -23q-176 0 -313 65t-216.5 194t-79.5 303q0 250 168.5 407.5t435.5 157.5
q130 0 241.5 -44t187.5 -119t119 -177.5t43 -217.5zM452 634h416q-7 78 -63.5 136t-143.5 58q-84 0 -141.5 -54t-67.5 -140z" />
    <glyph glyph-name="ecircumflex" unicode="&#xea;" horiz-adv-x="1308" 
d="M655 1331l-119 -164h-265l196 237h375l197 -237h-265zM1252 526v-21h-812q0 -124 58.5 -204.5t179.5 -80.5q88 0 142 43t71 117h349q-12 -69 -38.5 -129t-73.5 -115t-110.5 -94t-153.5 -62t-198 -23q-176 0 -313 65t-216.5 194t-79.5 303q0 250 168.5 407.5t435.5 157.5
q130 0 241.5 -44t187.5 -119t119 -177.5t43 -217.5zM452 634h416q-7 78 -63.5 136t-143.5 58q-84 0 -141.5 -54t-67.5 -140z" />
    <glyph glyph-name="edieresis" unicode="&#xeb;" horiz-adv-x="1308" 
d="M589 1167h-269v220h269v-220zM989 1167h-269v220h269v-220zM1252 526v-21h-812q0 -124 58.5 -204.5t179.5 -80.5q88 0 142 43t71 117h349q-12 -69 -38.5 -129t-73.5 -115t-110.5 -94t-153.5 -62t-198 -23q-176 0 -313 65t-216.5 194t-79.5 303q0 250 168.5 407.5
t435.5 157.5q130 0 241.5 -44t187.5 -119t119 -177.5t43 -217.5zM452 634h416q-7 78 -63.5 136t-143.5 58q-84 0 -141.5 -54t-67.5 -140z" />
    <glyph glyph-name="igrave" unicode="&#xec;" horiz-adv-x="569" 
d="M459 1167h-261l-210 214h294zM466 0h-363v1043h363v-1043z" />
    <glyph glyph-name="iacute" unicode="&#xed;" horiz-adv-x="569" 
d="M574 1381l-210 -214h-262l178 214h294zM466 0h-364v1043h364v-1043z" />
    <glyph glyph-name="icircumflex" unicode="&#xee;" horiz-adv-x="569" 
d="M284 1331l-119 -164h-265l197 237h374l197 -237h-265zM465 0h-363v1043h363v-1043z" />
    <glyph glyph-name="idieresis" unicode="&#xef;" horiz-adv-x="567" 
d="M218 1167h-269v220h269v-220zM618 1167h-269v220h269v-220zM465 0h-363v1043h363v-1043z" />
    <glyph glyph-name="ntilde" unicode="&#xf1;" horiz-adv-x="1296" 
d="M517 1264q-30 0 -49.5 -25t-35.5 -80l-151 68q21 101 82 157t149 56q48 0 91 -19t68.5 -42.5t56.5 -42.5t58 -19q30 0 49 25t35 81l152 -68q-21 -101 -82 -157t-149 -56q-48 0 -91 19t-68.5 42t-56.5 42t-58 19zM837 1084q177 0 270 -102.5t93 -284.5v-697h-363v647
q0 84 -42.5 131t-117.5 47q-88 0 -147 -76t-64 -204v-545h-364v1042h364v-248q18 50 48 97.5t74.5 92.5t109.5 72.5t139 27.5z" />
    <glyph glyph-name="ograve" unicode="&#xf2;" horiz-adv-x="1382" 
d="M864 1167h-262l-210 214h294zM688 1084q182 0 326.5 -69t228 -198t83.5 -296t-83.5 -296t-228 -198.5t-326.5 -69.5t-325.5 69.5t-225.5 198.5t-82 296q0 175 82.5 304t224.5 194t326 65zM691 191q123 0 186.5 92t63.5 238t-63.5 237.5t-186.5 91.5t-187 -91.5
t-64 -237.5t64 -238t187 -92z" />
    <glyph glyph-name="oacute" unicode="&#xf3;" horiz-adv-x="1382" 
d="M995 1381l-210 -214h-262l178 214h294zM688 1084q182 0 326.5 -69t228 -198t83.5 -296t-83.5 -296t-228 -198.5t-326.5 -69.5t-325.5 69.5t-225.5 198.5t-82 296q0 175 82.5 304t224.5 194t326 65zM691 191q123 0 186.5 92t63.5 238t-63.5 237.5t-186.5 91.5
t-186.5 -91.5t-63.5 -237.5t63.5 -238t186.5 -92z" />
    <glyph glyph-name="ocircumflex" unicode="&#xf4;" horiz-adv-x="1382" 
d="M691 1331l-119 -164h-265l197 237h374l197 -237h-265zM688 1084q182 0 326.5 -69t228 -198t83.5 -296t-83.5 -296t-228 -198.5t-326.5 -69.5t-325.5 69.5t-225.5 198.5t-82 296q0 175 82.5 304t224.5 194t326 65zM691 191q123 0 186.5 92t63.5 238t-63.5 237.5
t-186.5 91.5t-186.5 -91.5t-63.5 -237.5t63.5 -238t186.5 -92z" />
    <glyph glyph-name="otilde" unicode="&#xf5;" horiz-adv-x="1382" 
d="M556 1264q-30 0 -49 -24.5t-35 -80.5l-152 68q21 101 82 157t149 56q48 0 91 -19t68.5 -42.5t56.5 -42.5t58 -19q30 0 49 25t35 81l152 -68q-21 -101 -82 -157t-149 -56q-48 0 -91 19t-68.5 42t-56.5 42t-58 19zM688 1084q182 0 326.5 -69t228 -198t83.5 -296t-83.5 -296
t-228 -198.5t-326.5 -69.5t-325.5 69.5t-225.5 198.5t-82 296q0 175 82.5 304t224.5 194t326 65zM691 191q123 0 186.5 92t63.5 238t-63.5 237.5t-186.5 91.5t-186.5 -91.5t-63.5 -237.5t63.5 -238t186.5 -92z" />
    <glyph glyph-name="odieresis" unicode="&#xf6;" horiz-adv-x="1382" 
d="M625 1167h-269v220h269v-220zM1025 1167h-269v220h269v-220zM688 1084q182 0 326.5 -69t228 -198t83.5 -296t-83.5 -296t-228 -198.5t-326.5 -69.5t-325.5 69.5t-225.5 198.5t-82 296q0 175 82.5 304t224.5 194t326 65zM691 191q123 0 186.5 92t63.5 238t-63.5 237.5
t-186.5 91.5t-186.5 -91.5t-63.5 -237.5t63.5 -238t186.5 -92z" />
    <glyph glyph-name="ugrave" unicode="&#xf9;" horiz-adv-x="1294" 
d="M827 1042h363v-1042h-363v247q-18 -50 -48 -97.5t-75 -92.5t-110 -72.5t-139 -27.5q-177 0 -270 102.5t-93 284.5v698h363v-648q0 -84 43 -131t118 -47q88 0 147 76t64 204v546zM877 1167h-261l-211 214h294z" />
    <glyph glyph-name="uacute" unicode="&#xfa;" horiz-adv-x="1294" 
d="M827 1042h363v-1042h-363v247q-18 -50 -48 -97.5t-75 -92.5t-110 -72.5t-139 -27.5q-177 0 -270 102.5t-93 284.5v698h363v-648q0 -84 43 -131t118 -47q88 0 147 76t64 204v546zM877 1381l-210 -214h-262l178 214h294z" />
    <glyph glyph-name="ucircumflex" unicode="&#xfb;" horiz-adv-x="1294" 
d="M827 1042h363v-1042h-363v247q-18 -50 -48 -97.5t-75 -92.5t-110 -72.5t-139 -27.5q-177 0 -270 102.5t-93 284.5v698h363v-648q0 -84 43 -131t118 -47q88 0 147 76t64 204v546zM641 1331l-119 -164h-265l197 237h374l197 -237h-265z" />
    <glyph glyph-name="udieresis" unicode="&#xfc;" horiz-adv-x="1294" 
d="M827 1042h363v-1042h-363v247q-18 -50 -48 -97.5t-75 -92.5t-110 -72.5t-139 -27.5q-177 0 -270 102.5t-93 284.5v698h363v-648q0 -84 43 -131t118 -47q88 0 147 76t64 204v546zM576 1167h-270v220h270v-220zM976 1167h-269v220h269v-220z" />
    <glyph glyph-name="yacute" unicode="&#xfd;" horiz-adv-x="1167" 
d="M812 1042h341l-465 -1255q-24 -60 -69.5 -104.5t-116.5 -44.5h-334v249h212q25 0 40.5 9t21 19t13.5 33l-1 1l-444 1093h348l237 -690zM846 1382l-210 -214h-262l178 214h294z" />
    <glyph glyph-name="thorn" unicode="&#xfe;" horiz-adv-x="1351" 
d="M819 1084q207 0 337.5 -149t130.5 -415q0 -116 -27.5 -211.5t-73 -159.5t-106 -108t-126 -64t-134.5 -20q-135 0 -228 62.5t-126 165.5v-548h-364v1796h364v-584q15 37 40.5 73t67 75t105.5 63t140 24zM688 169q103 0 160 97.5t57 249.5q0 160 -60.5 253t-168.5 93
q-94 0 -152 -95.5t-58 -250.5v-3q0 -144 59.5 -244t162.5 -100z" />
    <glyph glyph-name="ydieresis" unicode="&#xff;" horiz-adv-x="1167" 
d="M812 1042h341l-465 -1255q-24 -60 -69.5 -104.5t-116.5 -44.5h-334v249h212q25 0 40.5 9t21 19t13.5 33l-1 1l-444 1093h348l237 -690zM522 1168h-269v219h269v-219zM922 1168h-269v219h269v-219z" />
    <glyph glyph-name="dmacron" unicode="&#x111;" horiz-adv-x="1351" 
d="M1377 1264v-120h-129v-1144h-363v192q-15 -37 -40.5 -73t-67 -75t-105.5 -63t-140 -24q-207 0 -338 149t-131 415q0 116 27.5 211.5t73 160t106.5 108.5t126.5 64t134.5 20q135 0 228 -63t126 -166v288h-312v120h312v169h363v-169h129zM885 525v4q0 144 -59.5 243.5
t-162.5 99.5t-160 -97t-57 -249q0 -160 60 -253.5t168 -93.5q95 0 153 95.5t58 250.5z" />
    <glyph glyph-name="Lslash" unicode="&#x141;" horiz-adv-x="1265" 
d="M578 290h677v-290h-1057v500l-161 -87v210l161 86v724h380v-519l312 168v-210l-312 -168v-414z" />
    <glyph glyph-name="lslash" unicode="&#x142;" horiz-adv-x="710" 
d="M685 1154v-171l-140 -126v-857h-364v529l-140 -126v170l140 127v733h364v-406z" />
    <glyph glyph-name="OE" unicode="&#x152;" horiz-adv-x="2007" 
d="M1942 1149h-699v-271h555v-273h-555v-310h699v-295h-1080q-136 0 -258.5 30.5t-223.5 90.5t-175 145t-115 200t-41 250q0 168 62.5 305t172 226.5t256.5 137.5t318 48h4h1080v-284zM862 302v828q-197 0 -306.5 -106.5t-109.5 -307.5q0 -200 108.5 -306t307.5 -108z" />
    <glyph glyph-name="oe" unicode="&#x153;" horiz-adv-x="2191" 
d="M2136 526v-21h-813q0 -124 59 -204.5t180 -80.5q88 0 142 43t71 117h349q-12 -69 -38.5 -129t-73.5 -115t-110.5 -94t-153.5 -62t-198 -23q-259 0 -426 139q-175 -139 -436 -139q-182 0 -325.5 69.5t-225.5 198.5t-82 296q0 175 82.5 304t224.5 194t326 65
q262 0 439 -141q165 141 418 141q130 0 241.5 -44t187.5 -119t119 -177.5t43 -217.5zM691 191q123 0 186.5 92t63.5 238t-63.5 237.5t-186.5 91.5t-187 -91.5t-64 -237.5t64 -238t187 -92zM1336 634h416q-7 78 -63.5 136t-143.5 58q-84 0 -141.5 -54t-67.5 -140z" />
    <glyph glyph-name="Scaron" unicode="&#x160;" horiz-adv-x="1353" 
d="M856 1566h-374l-197 237h265l119 -164l119 164h265zM990 816q50 -19 90 -40.5t82.5 -56.5t71 -76.5t47 -101.5t18.5 -131q0 -197 -170.5 -318t-453.5 -121q-122 0 -226 31t-176.5 82.5t-124.5 119.5t-78.5 140t-30.5 146h345q18 -119 98 -184t194 -65q243 0 243 155
q0 111 -138 165l-407 160q-113 44 -179.5 135t-66.5 230q0 54 17.5 108t59 108t102.5 95t156 67t211 26q105 0 195.5 -27t154 -71t109.5 -101t69 -116.5t26 -118.5h-348q-15 85 -71 125t-127 40q-81 0 -132 -34.5t-51 -93.5q0 -51 25.5 -78t79.5 -48z" />
    <glyph glyph-name="scaron" unicode="&#x161;" horiz-adv-x="1175" 
d="M773 1167h-375l-197 237h266l119 -164l118 164h266zM795 615q34 -10 56.5 -17.5t60 -23t63 -31.5t56 -40.5t48.5 -52.5t30.5 -66t12.5 -82q0 -90 -41.5 -158t-115.5 -108t-167.5 -59.5t-206.5 -19.5q-252 0 -389.5 97.5t-152.5 248.5h352q13 -61 64.5 -96t129.5 -35
q66 0 111 23.5t45 76.5q0 67 -115 103l-263 81q-53 16 -93.5 35t-85.5 53t-70 87t-25 121q0 153 130 242.5t345 89.5q204 0 336.5 -93.5t149.5 -223.5h-346q-25 106 -151 106q-60 0 -92 -25.5t-32 -64.5q0 -60 86 -86q133 -41 270 -82z" />
    <glyph glyph-name="Ydieresis" unicode="&#x178;" horiz-adv-x="1357" 
d="M991 1433h376l-503 -928v-505h-381v505l-491 928h396l296 -626zM614 1513h-269v220h269v-220zM1014 1513h-269v220h269v-220z" />
    <glyph glyph-name="Zcaron" unicode="&#x17d;" horiz-adv-x="1280" 
d="M822 1523h-375l-197 237h265l119 -163l119 163h265zM1226 1433v-254l-706 -889h706v-290h-1183v225l719 918h-673v290h1137z" />
    <glyph glyph-name="zcaron" unicode="&#x17e;" horiz-adv-x="1052" 
d="M438 254h560v-254h-941v204l504 585h-487v254h907v-178zM715 1167h-374l-197 237h265l119 -164l119 164h265z" />
    <glyph glyph-name="emdash" unicode="&#x2014;" horiz-adv-x="2248" 
d="M47 772v260h2153v-260h-2153z" />
    <glyph glyph-name="quotedblleft" unicode="&#x201c;" horiz-adv-x="989" 
d="M72 972q0 76 10.5 140.5t38 125t69.5 103t109.5 68t155.5 25.5v-158q-38 -8 -64 -19t-50.5 -31t-36.5 -54t-12 -82h140v-382h-360v264zM917 1276q-38 -8 -64 -19t-50.5 -31t-36.5 -54t-12 -82h141v-382h-361v264q0 76 10.5 140.5t38 125t69.5 103t109.5 68t155.5 25.5
v-158z" />
    <glyph glyph-name="quotedblright" unicode="&#x201d;" horiz-adv-x="989" 
d="M557 1434h360v-263q0 -76 -10.5 -140.5t-38 -125t-69.5 -103t-109.5 -68t-155.5 -25.5v158q80 17 121.5 55.5t41.5 129.5h-140v382zM94 1052v382h361v-263q0 -76 -10.5 -140.5t-38 -125t-69.5 -103t-109.5 -68t-155.5 -25.5v158q80 17 121.5 55.5t41.5 129.5h-141z" />
    <glyph glyph-name="bullet" unicode="&#x2022;" horiz-adv-x="475" 
d="M418 659h-361v382h361v-382z" />
    <glyph glyph-name="a.alt1" unicode="&#xf005;" horiz-adv-x="1351" 
d="M918 1036h330v-1036h-363v192q-14 -36 -41 -72t-69 -73t-105.5 -60.5t-137.5 -23.5q-98 0 -182.5 36.5t-148.5 105t-101 176t-37 240.5q0 115 28.5 210t75 157t108 105t126 61.5t130.5 18.5q131 0 224.5 -59.5t129.5 -157.5zM885 525v4q0 144 -59.5 244t-162.5 100
t-160 -97.5t-57 -249.5q0 -160 60 -253.5t168 -93.5q95 0 153 95.5t58 250.5z" />
    </font>
</defs>
</svg>
